<?xml version="1.0" encoding="utf-8"?>
<!-- Generator: Adobe Illustrator 16.0.3, SVG Export Plug-In . SVG Version: 6.00 Build 0)  -->
<!DOCTYPE svg PUBLIC "-//W3C//DTD SVG 1.1//EN" "http://www.w3.org/Graphics/SVG/1.1/DTD/svg11.dtd">
<svg version="1.1" xmlns="http://www.w3.org/2000/svg" xmlns:xlink="http://www.w3.org/1999/xlink" x="0px" y="0px" width="545px"
	 height="185.474px" viewBox="0 0 545 185.474" enable-background="new 0 0 545 185.474" xml:space="preserve">
<g id="Layer_1">
	<g display="none">
		<defs>
			<rect id="SVGID_1_" width="1096" height="780"/>
		</defs>
		<clipPath id="SVGID_2_" display="inline">
			<use xlink:href="#SVGID_1_"  overflow="visible"/>
		</clipPath>
		
			<circle display="inline" clip-path="url(#SVGID_2_)" fill="none" stroke="#FCE300" stroke-width="2" stroke-miterlimit="10" cx="166.223" cy="149.014" r="55.457"/>
		
			<line display="inline" clip-path="url(#SVGID_2_)" fill="none" stroke="#FCE300" stroke-width="2" stroke-miterlimit="10" x1="166.223" y1="93.557" x2="166.223" y2="56"/>
		
			<line display="inline" clip-path="url(#SVGID_2_)" fill="none" stroke="#FCE300" stroke-width="2" stroke-miterlimit="10" x1="166.223" y1="204.471" x2="166.223" y2="242.027"/>
		
			<line display="inline" clip-path="url(#SVGID_2_)" fill="none" stroke="#FCE300" stroke-width="2" stroke-miterlimit="10" x1="221.68" y1="149.014" x2="259.237" y2="149.014"/>
		
			<line display="inline" clip-path="url(#SVGID_2_)" fill="none" stroke="#FCE300" stroke-width="2" stroke-miterlimit="10" x1="110.766" y1="149.014" x2="73.208" y2="149.014"/>
		
			<line display="inline" clip-path="url(#SVGID_2_)" fill="none" stroke="#FCE300" stroke-width="2" stroke-miterlimit="10" x1="180.283" y1="95.369" x2="189.805" y2="59.04"/>
		
			<line display="inline" clip-path="url(#SVGID_2_)" fill="none" stroke="#FCE300" stroke-width="2" stroke-miterlimit="10" x1="152.162" y1="202.659" x2="142.64" y2="238.988"/>
		
			<line display="inline" clip-path="url(#SVGID_2_)" fill="none" stroke="#FCE300" stroke-width="2" stroke-miterlimit="10" x1="219.868" y1="163.074" x2="256.197" y2="172.596"/>
		
			<line display="inline" clip-path="url(#SVGID_2_)" fill="none" stroke="#FCE300" stroke-width="2" stroke-miterlimit="10" x1="112.578" y1="134.953" x2="76.249" y2="125.431"/>
		
			<line display="inline" clip-path="url(#SVGID_2_)" fill="none" stroke="#FCE300" stroke-width="2" stroke-miterlimit="10" x1="193.425" y1="100.686" x2="211.847" y2="67.958"/>
		
			<line display="inline" clip-path="url(#SVGID_2_)" fill="none" stroke="#FCE300" stroke-width="2" stroke-miterlimit="10" x1="139.021" y1="197.341" x2="120.599" y2="230.069"/>
		
			<line display="inline" clip-path="url(#SVGID_2_)" fill="none" stroke="#FCE300" stroke-width="2" stroke-miterlimit="10" x1="214.55" y1="176.215" x2="247.278" y2="194.638"/>
		
			<line display="inline" clip-path="url(#SVGID_2_)" fill="none" stroke="#FCE300" stroke-width="2" stroke-miterlimit="10" x1="117.896" y1="121.812" x2="85.167" y2="103.39"/>
		
			<line display="inline" clip-path="url(#SVGID_2_)" fill="none" stroke="#FCE300" stroke-width="2" stroke-miterlimit="10" x1="204.789" y1="109.162" x2="230.907" y2="82.174"/>
		
			<line display="inline" clip-path="url(#SVGID_2_)" fill="none" stroke="#FCE300" stroke-width="2" stroke-miterlimit="10" x1="127.657" y1="188.865" x2="101.539" y2="215.853"/>
		
			<line display="inline" clip-path="url(#SVGID_2_)" fill="none" stroke="#FCE300" stroke-width="2" stroke-miterlimit="10" x1="206.074" y1="187.58" x2="233.062" y2="213.698"/>
		
			<line display="inline" clip-path="url(#SVGID_2_)" fill="none" stroke="#FCE300" stroke-width="2" stroke-miterlimit="10" x1="126.371" y1="110.448" x2="99.383" y2="84.33"/>
		
			<line display="inline" clip-path="url(#SVGID_2_)" fill="none" stroke="#FCE300" stroke-width="2" stroke-miterlimit="10" x1="213.632" y1="120.242" x2="245.739" y2="100.757"/>
		
			<line display="inline" clip-path="url(#SVGID_2_)" fill="none" stroke="#FCE300" stroke-width="2" stroke-miterlimit="10" x1="118.813" y1="177.785" x2="86.706" y2="197.27"/>
		
			<line display="inline" clip-path="url(#SVGID_2_)" fill="none" stroke="#FCE300" stroke-width="2" stroke-miterlimit="10" x1="194.8" y1="196.541" x2="214.153" y2="228.727"/>
		
			<line display="inline" clip-path="url(#SVGID_2_)" fill="none" stroke="#FCE300" stroke-width="2" stroke-miterlimit="10" x1="137.646" y1="101.486" x2="118.292" y2="69.3"/>
		
			<line display="inline" clip-path="url(#SVGID_2_)" fill="none" stroke="#FCE300" stroke-width="2" stroke-miterlimit="10" x1="219.591" y1="133.936" x2="255.732" y2="123.725"/>
		
			<line display="inline" clip-path="url(#SVGID_2_)" fill="none" stroke="#FCE300" stroke-width="2" stroke-miterlimit="10" x1="112.854" y1="164.091" x2="76.713" y2="174.303"/>
		
			<line display="inline" clip-path="url(#SVGID_2_)" fill="none" stroke="#FCE300" stroke-width="2" stroke-miterlimit="10" x1="181.301" y1="202.381" x2="191.512" y2="238.523"/>
		
			<line display="inline" clip-path="url(#SVGID_2_)" fill="none" stroke="#FCE300" stroke-width="2" stroke-miterlimit="10" x1="151.145" y1="95.646" x2="140.934" y2="59.504"/>
		
			<circle display="inline" clip-path="url(#SVGID_2_)" fill="none" stroke="#FCE300" stroke-width="2" stroke-miterlimit="10" cx="657.707" cy="149.014" r="55.457"/>
		
			<circle display="inline" clip-path="url(#SVGID_2_)" fill="none" stroke="#FCE300" stroke-width="2" stroke-miterlimit="10" cx="903.449" cy="149.014" r="55.457"/>
		
			<circle display="inline" clip-path="url(#SVGID_2_)" fill="none" stroke="#FCE300" stroke-width="2" stroke-miterlimit="10" cx="166.223" cy="371.661" r="55.457"/>
		
			<circle display="inline" clip-path="url(#SVGID_2_)" fill="none" stroke="#FCE300" stroke-width="2" stroke-miterlimit="10" cx="411.965" cy="371.661" r="55.457"/>
		
			<circle display="inline" clip-path="url(#SVGID_2_)" fill="none" stroke="#FCE300" stroke-width="2" stroke-miterlimit="10" cx="657.707" cy="371.661" r="55.457"/>
		
			<circle display="inline" clip-path="url(#SVGID_2_)" fill="none" stroke="#FCE300" stroke-width="2" stroke-miterlimit="10" cx="903.449" cy="371.661" r="55.457"/>
		
			<circle display="inline" clip-path="url(#SVGID_2_)" fill="none" stroke="#FCE300" stroke-width="2" stroke-miterlimit="10" cx="166.223" cy="594.308" r="55.457"/>
		
			<circle display="inline" clip-path="url(#SVGID_2_)" fill="none" stroke="#FCE300" stroke-width="2" stroke-miterlimit="10" cx="411.965" cy="594.308" r="55.457"/>
		
			<circle display="inline" clip-path="url(#SVGID_2_)" fill="none" stroke="#FCE300" stroke-width="2" stroke-miterlimit="10" cx="657.707" cy="594.308" r="55.457"/>
		
			<circle display="inline" clip-path="url(#SVGID_2_)" fill="none" stroke="#FCE300" stroke-width="2" stroke-miterlimit="10" cx="903.449" cy="594.308" r="55.457"/>
		<path display="inline" clip-path="url(#SVGID_2_)" fill="none" stroke="#FCE300" stroke-width="2" stroke-miterlimit="10" d="
			M411.965,56l-11.301,38.557l6.33-0.56c3.307-0.293,6.635-0.293,9.942,0l6.33,0.56L411.965,56z"/>
		<path display="inline" clip-path="url(#SVGID_2_)" fill="none" stroke="#FCE300" stroke-width="2" stroke-miterlimit="10" d="
			M411.965,242.027l-11.301-38.557l6.33,0.56c3.307,0.293,6.635,0.293,9.942,0l6.33-0.56L411.965,242.027z"/>
		<path display="inline" clip-path="url(#SVGID_2_)" fill="none" stroke="#FCE300" stroke-width="2" stroke-miterlimit="10" d="
			M504.979,149.014l-38.557,11.301l0.56-6.33c0.293-3.307,0.293-6.635,0-9.942l-0.56-6.33L504.979,149.014z"/>
		<path display="inline" clip-path="url(#SVGID_2_)" fill="none" stroke="#FCE300" stroke-width="2" stroke-miterlimit="10" d="
			M318.951,149.014l38.557,11.301l-0.56-6.33c-0.293-3.307-0.293-6.635,0-9.942l0.56-6.33L318.951,149.014z"/>
		<path display="inline" clip-path="url(#SVGID_2_)" fill="none" stroke="#FCE300" stroke-width="2" stroke-miterlimit="10" d="
			M447.256,62.955l-25.085,31.386l6.069,1.883c3.171,0.985,6.249,2.247,9.199,3.773l5.644,2.919L447.256,62.955z"/>
		<path display="inline" clip-path="url(#SVGID_2_)" fill="none" stroke="#FCE300" stroke-width="2" stroke-miterlimit="10" d="
			M376.674,235.072l4.173-39.961l5.644,2.919c2.95,1.526,6.028,2.788,9.199,3.773l6.069,1.883L376.674,235.072z"/>
		<path display="inline" clip-path="url(#SVGID_2_)" fill="none" stroke="#FCE300" stroke-width="2" stroke-miterlimit="10" d="
			M498.023,184.305l-39.961-4.173l2.919-5.644c1.526-2.95,2.788-6.028,3.773-9.199l1.883-6.069L498.023,184.305z"/>
		<path display="inline" clip-path="url(#SVGID_2_)" fill="none" stroke="#FCE300" stroke-width="2" stroke-miterlimit="10" d="
			M325.906,113.723l31.386,25.085l1.883-6.069c0.985-3.171,2.247-6.249,3.773-9.199l2.919-5.644L325.906,113.723z"/>
		<path display="inline" clip-path="url(#SVGID_2_)" fill="none" stroke="#FCE300" stroke-width="2" stroke-miterlimit="10" d="
			M477.27,82.78l-35.117,19.521l4.9,4.045c2.56,2.115,4.93,4.451,7.08,6.981l4.114,4.843L477.27,82.78z"/>
		<path display="inline" clip-path="url(#SVGID_2_)" fill="none" stroke="#FCE300" stroke-width="2" stroke-miterlimit="10" d="
			M346.66,215.247l19.023-35.39l4.114,4.843c2.15,2.53,4.52,4.866,7.08,6.981l4.9,4.045L346.66,215.247z"/>
		<path display="inline" clip-path="url(#SVGID_2_)" fill="none" stroke="#FCE300" stroke-width="2" stroke-miterlimit="10" d="
			M478.198,214.318l-35.39-19.023l4.843-4.114c2.53-2.15,4.866-4.52,6.981-7.08l4.045-4.9L478.198,214.318z"/>
		<path display="inline" clip-path="url(#SVGID_2_)" fill="none" stroke="#FCE300" stroke-width="2" stroke-miterlimit="10" d="
			M345.731,83.709l19.521,35.117l4.045-4.9c2.115-2.56,4.451-4.93,6.981-7.08l4.843-4.114L345.731,83.709z"/>
		<path display="inline" clip-path="url(#SVGID_2_)" fill="none" stroke="#FCE300" stroke-width="2" stroke-miterlimit="10" d="
			M497.516,112.511l-39.898,4.737l2.998,5.602c1.568,2.928,2.873,5.988,3.903,9.145l1.969,6.042L497.516,112.511z"/>
		<path display="inline" clip-path="url(#SVGID_2_)" fill="none" stroke="#FCE300" stroke-width="2" stroke-miterlimit="10" d="
			M326.414,185.517l31.028-25.526l1.969,6.042c1.03,3.157,2.335,6.217,3.903,9.145l2.998,5.602L326.414,185.517z"/>
		<path display="inline" clip-path="url(#SVGID_2_)" fill="none" stroke="#FCE300" stroke-width="2" stroke-miterlimit="10" d="
			M448.468,234.565l-25.526-31.028l6.042-1.969c3.157-1.03,6.217-2.335,9.145-3.903l5.602-2.998L448.468,234.565z"/>
		<path display="inline" clip-path="url(#SVGID_2_)" fill="none" stroke="#FCE300" stroke-width="2" stroke-miterlimit="10" d="
			M375.462,63.462l4.737,39.898l5.602-2.998c2.928-1.568,5.988-2.873,9.145-3.903l6.042-1.969L375.462,63.462z"/>
		
			<polygon display="inline" clip-path="url(#SVGID_2_)" fill="none" stroke="#FCE300" stroke-width="2" stroke-miterlimit="10" points="
			739.088,158.385 750.721,149.014 740.063,140.428 748.721,129.828 736.063,123.393 742.474,110.722 728.014,106.971 
			731.552,92.458 716.617,92.091 716.764,77.153 702.137,80.191 698.884,65.611 685.33,71.893 678.849,58.435 667.078,67.633 
			657.707,56 649.121,66.658 638.521,58 632.086,70.657 619.416,64.247 615.664,78.707 601.15,75.169 600.784,90.103 
			585.847,89.957 588.885,104.584 574.305,107.837 580.587,121.39 567.129,127.872 576.326,139.642 564.693,149.014 
			575.352,157.599 566.693,168.199 579.351,174.634 572.94,187.305 587.4,191.056 583.862,205.569 598.797,205.936 598.65,220.874 
			613.276,217.836 616.53,232.416 630.084,226.134 636.565,239.592 648.336,230.394 657.707,242.027 666.293,231.369 
			676.893,240.027 683.327,227.37 695.998,233.78 699.75,219.32 714.263,222.858 714.63,207.924 729.567,208.07 726.529,193.443 
			741.109,190.19 734.827,176.637 748.285,170.155 		"/>
		
			<polygon display="inline" clip-path="url(#SVGID_2_)" fill="none" stroke="#FCE300" stroke-width="2" stroke-miterlimit="10" points="
			973.946,167.726 996.463,149.014 973.463,129.899 983.56,101.75 954.658,97.075 949.576,68.243 922.161,78.517 903.449,56 
			884.336,79 856.186,68.903 851.511,97.805 822.679,102.886 832.952,130.301 810.436,149.014 833.436,168.127 823.339,196.277 
			852.239,200.953 857.322,229.783 884.737,219.511 903.449,242.027 922.563,219.027 950.713,229.124 955.388,200.224 
			984.22,195.141 		"/>
		<path display="inline" clip-path="url(#SVGID_2_)" fill="none" stroke="#FCE300" stroke-width="2" stroke-miterlimit="10" d="
			M170.591,316.204h-8.737v-33.188c0-2.413,1.956-4.368,4.369-4.368c2.412,0,4.368,1.955,4.368,4.368V316.204z"/>
		<path display="inline" clip-path="url(#SVGID_2_)" fill="none" stroke="#FCE300" stroke-width="2" stroke-miterlimit="10" d="
			M170.591,427.118h-8.737v33.188c0,2.413,1.956,4.369,4.369,4.369c2.412,0,4.368-1.956,4.368-4.369V427.118z"/>
		<path display="inline" clip-path="url(#SVGID_2_)" fill="none" stroke="#FCE300" stroke-width="2" stroke-miterlimit="10" d="
			M221.68,376.029v-8.737h33.188c2.413,0,4.369,1.956,4.369,4.369c0,2.412-1.956,4.368-4.369,4.368H221.68z"/>
		<path display="inline" clip-path="url(#SVGID_2_)" fill="none" stroke="#FCE300" stroke-width="2" stroke-miterlimit="10" d="
			M110.766,376.029v-8.737H77.578c-2.413,0-4.369,1.956-4.369,4.369c0,2.412,1.956,4.368,4.369,4.368H110.766z"/>
		<path display="inline" clip-path="url(#SVGID_2_)" fill="none" stroke="#FCE300" stroke-width="2" stroke-miterlimit="10" d="
			M191.95,322.338l-8.04-3.42l12.991-30.54c0.944-2.22,3.509-3.254,5.729-2.31c2.221,0.944,3.255,3.51,2.31,5.73L191.95,322.338z"/>
		<path display="inline" clip-path="url(#SVGID_2_)" fill="none" stroke="#FCE300" stroke-width="2" stroke-miterlimit="10" d="
			M148.536,424.402l-8.04-3.42l-12.99,30.54c-0.945,2.221,0.09,4.786,2.31,5.73c2.22,0.944,4.785-0.09,5.73-2.311L148.536,424.402z"
			/>
		<path display="inline" clip-path="url(#SVGID_2_)" fill="none" stroke="#FCE300" stroke-width="2" stroke-miterlimit="10" d="
			M215.545,397.388l3.42-8.04l30.54,12.991c2.22,0.943,3.254,3.509,2.31,5.729c-0.944,2.222-3.51,3.255-5.73,2.311L215.545,397.388z
			"/>
		<path display="inline" clip-path="url(#SVGID_2_)" fill="none" stroke="#FCE300" stroke-width="2" stroke-miterlimit="10" d="
			M113.48,353.974l3.42-8.04l-30.54-12.99c-2.22-0.945-4.786,0.09-5.73,2.31c-0.944,2.22,0.09,4.785,2.31,5.73L113.48,353.974z"/>
		<path display="inline" clip-path="url(#SVGID_2_)" fill="none" stroke="#FCE300" stroke-width="2" stroke-miterlimit="10" d="
			M209.035,336.14l-6.09-6.265l23.799-23.132c1.73-1.681,4.496-1.642,6.177,0.088c1.682,1.73,1.643,4.496-0.088,6.177
			L209.035,336.14z"/>
		<path display="inline" clip-path="url(#SVGID_2_)" fill="none" stroke="#FCE300" stroke-width="2" stroke-miterlimit="10" d="
			M129.5,413.446l-6.09-6.265l-23.798,23.132c-1.73,1.681-1.769,4.447-0.088,6.177c1.682,1.73,4.447,1.77,6.178,0.088L129.5,413.446
			z"/>
		<path display="inline" clip-path="url(#SVGID_2_)" fill="none" stroke="#FCE300" stroke-width="2" stroke-miterlimit="10" d="
			M201.743,414.473l6.265-6.09l23.132,23.799c1.681,1.73,1.642,4.496-0.088,6.177c-1.73,1.683-4.496,1.644-6.177-0.088
			L201.743,414.473z"/>
		<path display="inline" clip-path="url(#SVGID_2_)" fill="none" stroke="#FCE300" stroke-width="2" stroke-miterlimit="10" d="
			M124.437,334.938l6.265-6.09L107.57,305.05c-1.681-1.73-4.447-1.769-6.177-0.088c-1.73,1.682-1.769,4.447-0.088,6.178
			L124.437,334.938z"/>
		<path display="inline" clip-path="url(#SVGID_2_)" fill="none" stroke="#FCE300" stroke-width="2" stroke-miterlimit="10" d="
			M219.478,355.583l-3.174-8.14l30.92-12.057c2.248-0.876,4.781,0.235,5.657,2.483c0.877,2.248-0.235,4.781-2.483,5.657
			L219.478,355.583z"/>
		<path display="inline" clip-path="url(#SVGID_2_)" fill="none" stroke="#FCE300" stroke-width="2" stroke-miterlimit="10" d="
			M116.142,395.878l-3.174-8.14l-30.921,12.057c-2.247,0.876-3.359,3.409-2.482,5.657c0.876,2.248,3.409,3.358,5.657,2.482
			L116.142,395.878z"/>
		<path display="inline" clip-path="url(#SVGID_2_)" fill="none" stroke="#FCE300" stroke-width="2" stroke-miterlimit="10" d="
			M182.3,424.916l8.14-3.174l12.057,30.92c0.876,2.248-0.235,4.78-2.483,5.656c-2.248,0.877-4.781-0.234-5.657-2.482L182.3,424.916z
			"/>
		<path display="inline" clip-path="url(#SVGID_2_)" fill="none" stroke="#FCE300" stroke-width="2" stroke-miterlimit="10" d="
			M142.005,321.58l8.14-3.174l-12.057-30.921c-0.876-2.247-3.409-3.359-5.657-2.483c-2.248,0.877-3.359,3.41-2.483,5.658
			L142.005,321.58z"/>
		<path display="inline" clip-path="url(#SVGID_2_)" fill="none" stroke="#FCE300" stroke-width="2" stroke-miterlimit="10" d="
			M411.002,315.396l-10.338-36.749h22.601l-10.338,36.749C412.654,316.368,411.276,316.368,411.002,315.396z"/>
		<path display="inline" clip-path="url(#SVGID_2_)" fill="none" stroke="#FCE300" stroke-width="2" stroke-miterlimit="10" d="
			M411.002,427.926l-10.338,36.749h22.601l-10.338-36.749C412.654,426.954,411.276,426.954,411.002,427.926z"/>
		<path display="inline" clip-path="url(#SVGID_2_)" fill="none" stroke="#FCE300" stroke-width="2" stroke-miterlimit="10" d="
			M468.23,372.623l36.749,10.338V360.36l-36.749,10.338C467.258,370.971,467.258,372.349,468.23,372.623z"/>
		<path display="inline" clip-path="url(#SVGID_2_)" fill="none" stroke="#FCE300" stroke-width="2" stroke-miterlimit="10" d="
			M355.7,372.623l-36.749,10.338V360.36l36.749,10.338C356.672,370.971,356.672,372.349,355.7,372.623z"/>
		<path display="inline" clip-path="url(#SVGID_2_)" fill="none" stroke="#FCE300" stroke-width="2" stroke-miterlimit="10" d="
			M439.249,322.444l9.41-36.997l19.577,11.295l-27.319,26.664C440.193,324.112,439,323.423,439.249,322.444z"/>
		<path display="inline" clip-path="url(#SVGID_2_)" fill="none" stroke="#FCE300" stroke-width="2" stroke-miterlimit="10" d="
			M383.014,419.915l-27.319,26.664l19.577,11.295l9.41-36.997C384.931,419.898,383.736,419.21,383.014,419.915z"/>
		<path display="inline" clip-path="url(#SVGID_2_)" fill="none" stroke="#FCE300" stroke-width="2" stroke-miterlimit="10" d="
			M460.219,400.612l26.664,27.318l11.295-19.577l-36.997-9.409C460.202,398.695,459.514,399.889,460.219,400.612z"/>
		<path display="inline" clip-path="url(#SVGID_2_)" fill="none" stroke="#FCE300" stroke-width="2" stroke-miterlimit="10" d="
			M362.748,344.377l-36.997-9.41l11.295-19.577l26.664,27.319C364.416,343.432,363.727,344.626,362.748,344.377z"/>
		<path display="inline" clip-path="url(#SVGID_2_)" fill="none" stroke="#FCE300" stroke-width="2" stroke-miterlimit="10" d="
			M460.192,342.665l26.639-27.344l11.313,19.567l-36.988,9.444C460.178,344.582,459.488,343.388,460.192,342.665z"/>
		<path display="inline" clip-path="url(#SVGID_2_)" fill="none" stroke="#FCE300" stroke-width="2" stroke-miterlimit="10" d="
			M362.773,398.99l-36.988,9.443l11.312,19.567l26.64-27.344C364.441,399.933,363.752,398.74,362.773,398.99z"/>
		<path display="inline" clip-path="url(#SVGID_2_)" fill="none" stroke="#FCE300" stroke-width="2" stroke-miterlimit="10" d="
			M439.294,420.853l9.444,36.987l19.567-11.312l-27.344-26.641C440.237,419.185,439.044,419.873,439.294,420.853z"/>
		<path display="inline" clip-path="url(#SVGID_2_)" fill="none" stroke="#FCE300" stroke-width="2" stroke-miterlimit="10" d="
			M382.969,323.433l-27.344-26.639l19.567-11.313l9.444,36.988C384.886,323.448,383.692,324.138,382.969,323.433z"/>
		<path display="inline" clip-path="url(#SVGID_2_)" fill="none" stroke="#FCE300" stroke-width="2" stroke-miterlimit="10" d="
			M657.707,278.647l-7.407,27.93c-1.289,4.862,2.377,9.626,7.407,9.626s8.696-4.764,7.407-9.626L657.707,278.647z"/>
		<path display="inline" clip-path="url(#SVGID_2_)" fill="none" stroke="#FCE300" stroke-width="2" stroke-miterlimit="10" d="
			M657.707,464.674l-7.407-27.93c-1.289-4.862,2.377-9.627,7.407-9.627s8.696,4.765,7.407,9.627L657.707,464.674z"/>
		<path display="inline" clip-path="url(#SVGID_2_)" fill="none" stroke="#FCE300" stroke-width="2" stroke-miterlimit="10" d="
			M750.721,371.661l-27.93,7.407c-4.862,1.289-9.627-2.377-9.627-7.407c0-5.03,4.765-8.696,9.627-7.407L750.721,371.661z"/>
		<path display="inline" clip-path="url(#SVGID_2_)" fill="none" stroke="#FCE300" stroke-width="2" stroke-miterlimit="10" d="
			M564.693,371.661l27.93,7.407c4.862,1.289,9.627-2.377,9.627-7.407c0-5.03-4.765-8.696-9.627-7.407L564.693,371.661z"/>
		<path display="inline" clip-path="url(#SVGID_2_)" fill="none" stroke="#FCE300" stroke-width="2" stroke-miterlimit="10" d="
			M693.417,285.775l-17.562,22.946c-3.058,3.994-1.503,9.801,3.143,11.732c4.645,1.932,9.859-1.061,10.535-6.045L693.417,285.775z"
			/>
		<path display="inline" clip-path="url(#SVGID_2_)" fill="none" stroke="#FCE300" stroke-width="2" stroke-miterlimit="10" d="
			M621.997,457.546l3.884-28.633c0.676-4.983,5.891-7.977,10.535-6.045c4.645,1.931,6.2,7.738,3.143,11.732L621.997,457.546z"/>
		<path display="inline" clip-path="url(#SVGID_2_)" fill="none" stroke="#FCE300" stroke-width="2" stroke-miterlimit="10" d="
			M743.593,407.371l-28.634-3.885c-4.983-0.676-7.977-5.89-6.045-10.535c1.932-4.645,7.738-6.2,11.732-3.143L743.593,407.371z"/>
		<path display="inline" clip-path="url(#SVGID_2_)" fill="none" stroke="#FCE300" stroke-width="2" stroke-miterlimit="10" d="
			M571.821,335.951l22.946,17.562c3.994,3.057,9.801,1.502,11.731-3.143c1.933-4.645-1.061-9.859-6.045-10.535L571.821,335.951z"/>
		<path display="inline" clip-path="url(#SVGID_2_)" fill="none" stroke="#FCE300" stroke-width="2" stroke-miterlimit="10" d="
			M723.653,306.067l-25.024,14.445c-4.357,2.515-5.15,8.474-1.604,12.04c3.548,3.567,9.512,2.806,12.049-1.537L723.653,306.067z"/>
		<path display="inline" clip-path="url(#SVGID_2_)" fill="none" stroke="#FCE300" stroke-width="2" stroke-miterlimit="10" d="
			M591.761,437.255l14.579-24.948c2.537-4.343,8.5-5.104,12.049-1.537c3.547,3.566,2.754,9.525-1.604,12.04L591.761,437.255z"/>
		<path display="inline" clip-path="url(#SVGID_2_)" fill="none" stroke="#FCE300" stroke-width="2" stroke-miterlimit="10" d="
			M723.301,437.607l-24.948-14.579c-4.343-2.538-5.104-8.501-1.537-12.049c3.566-3.547,9.525-2.754,12.04,1.603L723.301,437.607z"/>
		<path display="inline" clip-path="url(#SVGID_2_)" fill="none" stroke="#FCE300" stroke-width="2" stroke-miterlimit="10" d="
			M592.113,305.714l14.445,25.025c2.515,4.357,8.474,5.15,12.04,1.603c3.566-3.548,2.806-9.511-1.537-12.049L592.113,305.714z"/>
		<path display="inline" clip-path="url(#SVGID_2_)" fill="none" stroke="#FCE300" stroke-width="2" stroke-miterlimit="10" d="
			M743.783,336.412l-28.653,3.73c-4.988,0.649-8.008,5.847-6.103,10.503c1.906,4.655,7.705,6.241,11.716,3.206L743.783,336.412z"/>
		<path display="inline" clip-path="url(#SVGID_2_)" fill="none" stroke="#FCE300" stroke-width="2" stroke-miterlimit="10" d="
			M571.631,406.909l23.04-17.439c4.011-3.035,9.81-1.449,11.715,3.207c1.906,4.655-1.113,9.854-6.102,10.503L571.631,406.909z"/>
		<path display="inline" clip-path="url(#SVGID_2_)" fill="none" stroke="#FCE300" stroke-width="2" stroke-miterlimit="10" d="
			M692.956,457.736l-17.439-23.04c-3.035-4.01-1.449-9.809,3.206-11.715c4.656-1.906,9.854,1.114,10.503,6.103L692.956,457.736z"/>
		<path display="inline" clip-path="url(#SVGID_2_)" fill="none" stroke="#FCE300" stroke-width="2" stroke-miterlimit="10" d="
			M622.458,285.585l3.73,28.653c0.648,4.988,5.847,8.009,10.503,6.102c4.655-1.906,6.241-7.705,3.206-11.715L622.458,285.585z"/>
		<path display="inline" clip-path="url(#SVGID_2_)" fill="none" stroke="#FCE300" stroke-width="2" stroke-miterlimit="10" d="
			M990.435,374.118l6.028-2.457l-4.908-2.001c-15.781-6.433-20.978-26.209-10.396-39.57l3.29-4.154l-6.458,0.823
			c-16.752,2.137-30.941-12.26-28.563-28.98l0.917-6.444l-5.161,3.966c-13.39,10.292-32.901,5.013-39.276-10.626l-2.458-6.028
			l-2,4.908c-6.434,15.782-26.21,20.978-39.57,10.398l-4.155-3.291l0.824,6.458c2.136,16.752-12.26,30.941-28.979,28.562
			l-6.445-0.917l3.967,5.161c10.291,13.39,5.013,32.903-10.626,39.278l-6.028,2.457l4.907,2
			c15.782,6.434,20.979,26.21,10.398,39.569l-3.29,4.155l6.457-0.823c16.753-2.137,30.941,12.26,28.563,28.979l-0.918,6.445
			l5.162-3.968c13.39-10.291,32.902-5.012,39.277,10.626l2.457,6.028l2.001-4.907c6.433-15.781,26.209-20.979,39.569-10.397
			l4.155,3.29l-0.824-6.457c-2.136-16.753,12.261-30.942,28.98-28.563l6.444,0.917l-3.967-5.162
			C969.517,400.005,974.796,380.493,990.435,374.118z"/>
		
			<rect x="161.854" y="501.295" display="inline" clip-path="url(#SVGID_2_)" fill="none" stroke="#FCE300" stroke-width="2" stroke-miterlimit="10" width="8.737" height="27.64"/>
		
			<rect x="161.854" y="659.681" display="inline" clip-path="url(#SVGID_2_)" fill="none" stroke="#FCE300" stroke-width="2" stroke-miterlimit="10" width="8.737" height="27.641"/>
		
			<rect x="231.596" y="589.939" display="inline" clip-path="url(#SVGID_2_)" fill="none" stroke="#FCE300" stroke-width="2" stroke-miterlimit="10" width="27.64" height="8.736"/>
		
			<rect x="73.209" y="589.939" display="inline" clip-path="url(#SVGID_2_)" fill="none" stroke="#FCE300" stroke-width="2" stroke-miterlimit="10" width="27.64" height="8.736"/>
		
			<rect x="201.486" y="511.925" transform="matrix(0.8658 0.5004 -0.5004 0.8658 290.7292 -32.4488)" display="inline" clip-path="url(#SVGID_2_)" fill="none" stroke="#FCE300" stroke-width="2" stroke-miterlimit="10" width="8.737" height="27.641"/>
		
			<rect x="122.222" y="649.051" transform="matrix(0.8658 0.5004 -0.5004 0.8658 348.7121 25.6232)" display="inline" clip-path="url(#SVGID_2_)" fill="none" stroke="#FCE300" stroke-width="2" stroke-miterlimit="10" width="8.737" height="27.641"/>
		
			<rect x="230.418" y="620.12" transform="matrix(0.5005 -0.8658 0.8658 0.5005 -431.556 519.9508)" display="inline" clip-path="url(#SVGID_2_)" fill="none" stroke="#FCE300" stroke-width="2" stroke-miterlimit="10" width="8.736" height="27.64"/>
		
			<rect x="93.291" y="540.856" transform="matrix(0.5004 -0.8658 0.8658 0.5004 -431.4429 361.6657)" display="inline" clip-path="url(#SVGID_2_)" fill="none" stroke="#FCE300" stroke-width="2" stroke-miterlimit="10" width="8.737" height="27.64"/>
		
			<rect x="230.479" y="540.962" transform="matrix(0.4991 0.8665 -0.8665 0.4991 598.3772 74.3837)" display="inline" clip-path="url(#SVGID_2_)" fill="none" stroke="#FCE300" stroke-width="2" stroke-miterlimit="10" width="8.737" height="27.641"/>
		
			<rect x="93.23" y="620.013" transform="matrix(0.4992 0.8665 -0.8665 0.4992 598.1075 232.8843)" display="inline" clip-path="url(#SVGID_2_)" fill="none" stroke="#FCE300" stroke-width="2" stroke-miterlimit="10" width="8.737" height="27.64"/>
		
			<rect x="201.379" y="649.113" transform="matrix(0.8665 -0.4992 0.4992 0.8665 -303.4491 191.2014)" display="inline" clip-path="url(#SVGID_2_)" fill="none" stroke="#FCE300" stroke-width="2" stroke-miterlimit="10" width="8.737" height="27.64"/>
		
			<rect x="122.329" y="511.863" transform="matrix(0.8665 -0.4992 0.4992 0.8665 -245.4912 133.4198)" display="inline" clip-path="url(#SVGID_2_)" fill="none" stroke="#FCE300" stroke-width="2" stroke-miterlimit="10" width="8.737" height="27.641"/>
		
			<line display="inline" clip-path="url(#SVGID_2_)" fill="none" stroke="#FCE300" stroke-width="2" stroke-miterlimit="10" x1="411.965" y1="538.851" x2="411.965" y2="515.784"/>
		
			<circle display="inline" clip-path="url(#SVGID_2_)" fill="none" stroke="#FCE300" stroke-width="2" stroke-miterlimit="10" cx="411.965" cy="508.539" r="7.245"/>
		
			<line display="inline" clip-path="url(#SVGID_2_)" fill="none" stroke="#FCE300" stroke-width="2" stroke-miterlimit="10" x1="411.965" y1="649.765" x2="411.965" y2="672.832"/>
		
			<circle display="inline" clip-path="url(#SVGID_2_)" fill="none" stroke="#FCE300" stroke-width="2" stroke-miterlimit="10" cx="411.965" cy="680.076" r="7.245"/>
		
			<line display="inline" clip-path="url(#SVGID_2_)" fill="none" stroke="#FCE300" stroke-width="2" stroke-miterlimit="10" x1="467.422" y1="594.308" x2="490.489" y2="594.308"/>
		
			<circle display="inline" clip-path="url(#SVGID_2_)" fill="none" stroke="#FCE300" stroke-width="2" stroke-miterlimit="10" cx="497.733" cy="594.308" r="7.245"/>
		
			<line display="inline" clip-path="url(#SVGID_2_)" fill="none" stroke="#FCE300" stroke-width="2" stroke-miterlimit="10" x1="356.508" y1="594.308" x2="333.441" y2="594.308"/>
		
			<circle display="inline" clip-path="url(#SVGID_2_)" fill="none" stroke="#FCE300" stroke-width="2" stroke-miterlimit="10" cx="326.196" cy="594.308" r="7.245"/>
		
			<line display="inline" clip-path="url(#SVGID_2_)" fill="none" stroke="#FCE300" stroke-width="2" stroke-miterlimit="10" x1="429.014" y1="541.536" x2="436.104" y2="519.586"/>
		
			<circle display="inline" clip-path="url(#SVGID_2_)" fill="none" stroke="#FCE300" stroke-width="2" stroke-miterlimit="10" cx="438.332" cy="512.692" r="7.245"/>
		
			<line display="inline" clip-path="url(#SVGID_2_)" fill="none" stroke="#FCE300" stroke-width="2" stroke-miterlimit="10" x1="394.916" y1="647.079" x2="387.825" y2="669.029"/>
		
			<circle display="inline" clip-path="url(#SVGID_2_)" fill="none" stroke="#FCE300" stroke-width="2" stroke-miterlimit="10" cx="385.598" cy="675.923" r="7.245"/>
		
			<line display="inline" clip-path="url(#SVGID_2_)" fill="none" stroke="#FCE300" stroke-width="2" stroke-miterlimit="10" x1="464.736" y1="611.356" x2="486.685" y2="618.447"/>
		
			<circle display="inline" clip-path="url(#SVGID_2_)" fill="none" stroke="#FCE300" stroke-width="2" stroke-miterlimit="10" cx="493.58" cy="620.675" r="7.245"/>
		
			<line display="inline" clip-path="url(#SVGID_2_)" fill="none" stroke="#FCE300" stroke-width="2" stroke-miterlimit="10" x1="359.193" y1="577.259" x2="337.244" y2="570.168"/>
		
			<circle display="inline" clip-path="url(#SVGID_2_)" fill="none" stroke="#FCE300" stroke-width="2" stroke-miterlimit="10" cx="330.35" cy="567.941" r="7.245"/>
		
			<line display="inline" clip-path="url(#SVGID_2_)" fill="none" stroke="#FCE300" stroke-width="2" stroke-miterlimit="10" x1="444.411" y1="549.333" x2="457.907" y2="530.626"/>
		
			<circle display="inline" clip-path="url(#SVGID_2_)" fill="none" stroke="#FCE300" stroke-width="2" stroke-miterlimit="10" cx="462.146" cy="524.751" r="7.245"/>
		
			<line display="inline" clip-path="url(#SVGID_2_)" fill="none" stroke="#FCE300" stroke-width="2" stroke-miterlimit="10" x1="379.519" y1="639.282" x2="366.022" y2="657.989"/>
		
			<circle display="inline" clip-path="url(#SVGID_2_)" fill="none" stroke="#FCE300" stroke-width="2" stroke-miterlimit="10" cx="361.784" cy="663.864" r="7.245"/>
		
			<line display="inline" clip-path="url(#SVGID_2_)" fill="none" stroke="#FCE300" stroke-width="2" stroke-miterlimit="10" x1="456.939" y1="626.754" x2="475.646" y2="640.25"/>
		
			<circle display="inline" clip-path="url(#SVGID_2_)" fill="none" stroke="#FCE300" stroke-width="2" stroke-miterlimit="10" cx="481.522" cy="644.489" r="7.245"/>
		
			<line display="inline" clip-path="url(#SVGID_2_)" fill="none" stroke="#FCE300" stroke-width="2" stroke-miterlimit="10" x1="366.99" y1="561.861" x2="348.283" y2="548.365"/>
		
			<circle display="inline" clip-path="url(#SVGID_2_)" fill="none" stroke="#FCE300" stroke-width="2" stroke-miterlimit="10" cx="342.408" cy="544.127" r="7.245"/>
		
			<line display="inline" clip-path="url(#SVGID_2_)" fill="none" stroke="#FCE300" stroke-width="2" stroke-miterlimit="10" x1="456.666" y1="561.486" x2="475.259" y2="547.834"/>
		
			<circle display="inline" clip-path="url(#SVGID_2_)" fill="none" stroke="#FCE300" stroke-width="2" stroke-miterlimit="10" cx="481.099" cy="543.546" r="7.245"/>
		
			<line display="inline" clip-path="url(#SVGID_2_)" fill="none" stroke="#FCE300" stroke-width="2" stroke-miterlimit="10" x1="367.264" y1="627.13" x2="348.67" y2="640.782"/>
		
			<circle display="inline" clip-path="url(#SVGID_2_)" fill="none" stroke="#FCE300" stroke-width="2" stroke-miterlimit="10" cx="342.831" cy="645.069" r="7.245"/>
		
			<line display="inline" clip-path="url(#SVGID_2_)" fill="none" stroke="#FCE300" stroke-width="2" stroke-miterlimit="10" x1="444.787" y1="639.009" x2="458.439" y2="657.603"/>
		
			<circle display="inline" clip-path="url(#SVGID_2_)" fill="none" stroke="#FCE300" stroke-width="2" stroke-miterlimit="10" cx="462.727" cy="663.441" r="7.245"/>
		
			<line display="inline" clip-path="url(#SVGID_2_)" fill="none" stroke="#FCE300" stroke-width="2" stroke-miterlimit="10" x1="379.143" y1="549.606" x2="365.491" y2="531.014"/>
		
			<circle display="inline" clip-path="url(#SVGID_2_)" fill="none" stroke="#FCE300" stroke-width="2" stroke-miterlimit="10" cx="361.203" cy="525.174" r="7.245"/>
		
			<line display="inline" clip-path="url(#SVGID_2_)" fill="none" stroke="#FCE300" stroke-width="2" stroke-miterlimit="10" x1="464.592" y1="576.817" x2="486.48" y2="569.543"/>
		
			<circle display="inline" clip-path="url(#SVGID_2_)" fill="none" stroke="#FCE300" stroke-width="2" stroke-miterlimit="10" cx="493.356" cy="567.258" r="7.245"/>
		
			<line display="inline" clip-path="url(#SVGID_2_)" fill="none" stroke="#FCE300" stroke-width="2" stroke-miterlimit="10" x1="359.338" y1="611.798" x2="337.449" y2="619.073"/>
		
			<circle display="inline" clip-path="url(#SVGID_2_)" fill="none" stroke="#FCE300" stroke-width="2" stroke-miterlimit="10" cx="330.573" cy="621.358" r="7.245"/>
		
			<line display="inline" clip-path="url(#SVGID_2_)" fill="none" stroke="#FCE300" stroke-width="2" stroke-miterlimit="10" x1="429.455" y1="646.935" x2="436.73" y2="668.823"/>
		
			<circle display="inline" clip-path="url(#SVGID_2_)" fill="none" stroke="#FCE300" stroke-width="2" stroke-miterlimit="10" cx="439.015" cy="675.699" r="7.245"/>
		
			<line display="inline" clip-path="url(#SVGID_2_)" fill="none" stroke="#FCE300" stroke-width="2" stroke-miterlimit="10" x1="394.475" y1="541.681" x2="387.2" y2="519.792"/>
		
			<circle display="inline" clip-path="url(#SVGID_2_)" fill="none" stroke="#FCE300" stroke-width="2" stroke-miterlimit="10" cx="384.915" cy="512.917" r="7.245"/>
		<path display="inline" clip-path="url(#SVGID_2_)" fill="none" stroke="#FCE300" stroke-width="2" stroke-miterlimit="10" d="
			M659.093,538.851c2.026-6.463-4.332-10.521-8.194-14.439c-5.249-5.325-7.518-14.48-1.611-20.279
			c2.875-2.823,7.498-3.734,11.129-1.843c3.268,1.703,4.992,5.756,3.88,9.299c-1.143,3.637-5.507,5.486-8.978,3.938
			c-4.832-2.153-4.012-10.528,2.046-9.511"/>
		<path display="inline" clip-path="url(#SVGID_2_)" fill="none" stroke="#FCE300" stroke-width="2" stroke-miterlimit="10" d="
			M656.321,649.765c-2.026,6.463,4.332,10.521,8.194,14.44c5.249,5.325,7.518,14.479,1.611,20.279
			c-2.875,2.822-7.498,3.733-11.129,1.843c-3.268-1.703-4.992-5.756-3.88-9.299c1.143-3.638,5.507-5.486,8.978-3.939
			c4.832,2.154,4.012,10.529-2.046,9.511"/>
		<path display="inline" clip-path="url(#SVGID_2_)" fill="none" stroke="#FCE300" stroke-width="2" stroke-miterlimit="10" d="
			M713.164,595.693c6.463,2.026,10.521-4.332,14.44-8.194c5.324-5.248,14.479-7.518,20.278-1.611
			c2.823,2.875,3.734,7.498,1.844,11.129c-1.703,3.268-5.757,4.993-9.3,3.88c-3.637-1.142-5.485-5.507-3.938-8.977
			c2.154-4.832,10.529-4.013,9.511,2.046"/>
		<path display="inline" clip-path="url(#SVGID_2_)" fill="none" stroke="#FCE300" stroke-width="2" stroke-miterlimit="10" d="
			M602.25,592.922c-6.463-2.025-10.521,4.332-14.44,8.194c-5.324,5.249-14.479,7.518-20.278,1.612
			c-2.823-2.875-3.734-7.498-1.844-11.129c1.703-3.269,5.757-4.993,9.3-3.881c3.637,1.143,5.485,5.508,3.938,8.978
			c-2.154,4.832-10.529,4.012-9.511-2.046"/>
		<path display="inline" clip-path="url(#SVGID_2_)" fill="none" stroke="#FCE300" stroke-width="2" stroke-miterlimit="10" d="
			M680.062,543.537c4.329-5.209-0.01-11.378-2.094-16.472c-2.831-6.92-1.452-16.25,6.215-19.369
			c3.732-1.52,8.354-0.605,10.994,2.523c2.377,2.817,2.433,7.221,0.057,10.076c-2.438,2.93-7.179,2.981-9.801,0.233
			c-3.65-3.829,0.289-11.266,5.507-8.021"/>
		<path display="inline" clip-path="url(#SVGID_2_)" fill="none" stroke="#FCE300" stroke-width="2" stroke-miterlimit="10" d="
			M635.354,645.079c-4.33,5.209,0.009,11.378,2.093,16.471c2.831,6.92,1.452,16.25-6.215,19.37
			c-3.732,1.519-8.354,0.605-10.994-2.524c-2.377-2.816-2.433-7.221-0.057-10.075c2.438-2.931,7.179-2.982,9.801-0.233
			c3.65,3.829-0.289,11.265-5.507,8.021"/>
		<path display="inline" clip-path="url(#SVGID_2_)" fill="none" stroke="#FCE300" stroke-width="2" stroke-miterlimit="10" d="
			M708.479,616.662c5.209,4.33,11.378-0.009,16.471-2.093c6.92-2.831,16.25-1.452,19.37,6.215c1.519,3.731,0.604,8.354-2.524,10.994
			c-2.816,2.377-7.221,2.432-10.076,0.056c-2.93-2.438-2.981-7.178-0.232-9.8c3.829-3.652,11.265,0.289,8.021,5.506"/>
		<path display="inline" clip-path="url(#SVGID_2_)" fill="none" stroke="#FCE300" stroke-width="2" stroke-miterlimit="10" d="
			M606.936,571.954c-5.209-4.33-11.378,0.009-16.471,2.093c-6.92,2.831-16.25,1.452-19.37-6.215
			c-1.519-3.732-0.604-8.354,2.524-10.994c2.816-2.377,7.221-2.432,10.076-0.056c2.93,2.438,2.981,7.178,0.232,9.8
			c-3.829,3.651-11.265-0.289-8.021-5.506"/>
		<path display="inline" clip-path="url(#SVGID_2_)" fill="none" stroke="#FCE300" stroke-width="2" stroke-miterlimit="10" d="
			M697.676,555.839c5.984-3.173,4.315-10.528,4.323-16.031c0.01-7.476,4.831-15.583,13.109-15.556
			c4.029,0.013,7.957,2.615,9.21,6.513c1.128,3.508-0.494,7.604-3.777,9.341c-3.368,1.784-7.772,0.031-9.153-3.509
			c-1.923-4.928,4.549-10.309,8.141-5.326"/>
		<path display="inline" clip-path="url(#SVGID_2_)" fill="none" stroke="#FCE300" stroke-width="2" stroke-miterlimit="10" d="
			M617.738,632.776c-5.984,3.174-4.315,10.528-4.323,16.031c-0.011,7.477-4.831,15.583-13.109,15.557
			c-4.029-0.014-7.957-2.615-9.21-6.513c-1.128-3.509,0.494-7.604,3.777-9.342c3.368-1.784,7.772-0.031,9.153,3.509
			c1.923,4.929-4.549,10.31-8.141,5.326"/>
		<path display="inline" clip-path="url(#SVGID_2_)" fill="none" stroke="#FCE300" stroke-width="2" stroke-miterlimit="10" d="
			M696.176,634.277c3.173,5.983,10.528,4.314,16.031,4.323c7.476,0.01,15.583,4.83,15.556,13.108
			c-0.013,4.029-2.614,7.957-6.513,9.21c-3.508,1.128-7.604-0.494-9.341-3.776c-1.784-3.368-0.031-7.773,3.508-9.154
			c4.929-1.922,10.31,4.549,5.327,8.141"/>
		<path display="inline" clip-path="url(#SVGID_2_)" fill="none" stroke="#FCE300" stroke-width="2" stroke-miterlimit="10" d="
			M619.238,554.339c-3.174-5.984-10.528-4.315-16.031-4.323c-7.477-0.01-15.583-4.831-15.556-13.109
			c0.013-4.028,2.614-7.957,6.513-9.21c3.508-1.128,7.603,0.494,9.341,3.777c1.784,3.368,0.031,7.773-3.508,9.154
			c-4.929,1.922-10.311-4.55-5.327-8.142"/>
		<path display="inline" clip-path="url(#SVGID_2_)" fill="none" stroke="#FCE300" stroke-width="2" stroke-miterlimit="10" d="
			M709.296,573.911c6.741-0.66,7.992-8.099,10.09-13.186c2.85-6.912,10.39-12.578,18.036-9.408c3.723,1.543,6.367,5.443,6.046,9.524
			c-0.29,3.674-3.347,6.845-7.044,7.205c-3.794,0.371-7.201-2.926-7.134-6.724c0.095-5.29,8.125-7.808,9.554-1.834"/>
		<path display="inline" clip-path="url(#SVGID_2_)" fill="none" stroke="#FCE300" stroke-width="2" stroke-miterlimit="10" d="
			M606.118,614.704c-6.741,0.661-7.992,8.099-10.09,13.186c-2.85,6.912-10.39,12.578-18.036,9.408
			c-3.723-1.543-6.367-5.442-6.046-9.523c0.29-3.674,3.347-6.846,7.044-7.206c3.794-0.37,7.201,2.926,7.134,6.724
			c-0.095,5.29-8.125,7.809-9.554,1.834"/>
		<path display="inline" clip-path="url(#SVGID_2_)" fill="none" stroke="#FCE300" stroke-width="2" stroke-miterlimit="10" d="
			M678.104,645.896c0.661,6.741,8.099,7.992,13.186,10.09c6.912,2.851,12.578,10.391,9.408,18.036
			c-1.543,3.722-5.443,6.367-9.524,6.045c-3.674-0.289-6.845-3.346-7.204-7.043c-0.371-3.794,2.925-7.201,6.723-7.134
			c5.29,0.095,7.808,8.125,1.834,9.554"/>
		<path display="inline" clip-path="url(#SVGID_2_)" fill="none" stroke="#FCE300" stroke-width="2" stroke-miterlimit="10" d="
			M637.311,542.719c-0.661-6.74-8.099-7.991-13.186-10.09c-6.912-2.85-12.578-10.39-9.408-18.036
			c1.543-3.722,5.443-6.366,9.523-6.045c3.675,0.289,6.846,3.347,7.205,7.043c0.371,3.793-2.925,7.201-6.723,7.135
			c-5.29-0.096-7.808-8.125-1.834-9.555"/>
		
			<line display="inline" clip-path="url(#SVGID_2_)" fill="none" stroke="#FCE300" stroke-width="2" stroke-miterlimit="10" x1="903.449" y1="538.851" x2="903.449" y2="501.295"/>
		
			<line display="inline" clip-path="url(#SVGID_2_)" fill="none" stroke="#FCE300" stroke-width="2" stroke-miterlimit="10" x1="894.073" y1="539.644" x2="891.334" y2="523.667"/>
		
			<line display="inline" clip-path="url(#SVGID_2_)" fill="none" stroke="#FCE300" stroke-width="2" stroke-miterlimit="10" x1="912.825" y1="539.644" x2="915.564" y2="523.667"/>
		
			<line display="inline" clip-path="url(#SVGID_2_)" fill="none" stroke="#FCE300" stroke-width="2" stroke-miterlimit="10" x1="903.449" y1="649.765" x2="903.449" y2="687.322"/>
		
			<line display="inline" clip-path="url(#SVGID_2_)" fill="none" stroke="#FCE300" stroke-width="2" stroke-miterlimit="10" x1="894.073" y1="648.972" x2="891.334" y2="664.949"/>
		
			<line display="inline" clip-path="url(#SVGID_2_)" fill="none" stroke="#FCE300" stroke-width="2" stroke-miterlimit="10" x1="912.825" y1="648.972" x2="915.564" y2="664.949"/>
		
			<line display="inline" clip-path="url(#SVGID_2_)" fill="none" stroke="#FCE300" stroke-width="2" stroke-miterlimit="10" x1="958.906" y1="594.308" x2="996.463" y2="594.308"/>
		
			<line display="inline" clip-path="url(#SVGID_2_)" fill="none" stroke="#FCE300" stroke-width="2" stroke-miterlimit="10" x1="958.113" y1="603.684" x2="974.09" y2="606.424"/>
		
			<line display="inline" clip-path="url(#SVGID_2_)" fill="none" stroke="#FCE300" stroke-width="2" stroke-miterlimit="10" x1="958.113" y1="584.933" x2="974.09" y2="582.192"/>
		
			<line display="inline" clip-path="url(#SVGID_2_)" fill="none" stroke="#FCE300" stroke-width="2" stroke-miterlimit="10" x1="847.992" y1="594.308" x2="810.436" y2="594.308"/>
		
			<line display="inline" clip-path="url(#SVGID_2_)" fill="none" stroke="#FCE300" stroke-width="2" stroke-miterlimit="10" x1="848.785" y1="603.684" x2="832.809" y2="606.424"/>
		
			<line display="inline" clip-path="url(#SVGID_2_)" fill="none" stroke="#FCE300" stroke-width="2" stroke-miterlimit="10" x1="848.785" y1="584.933" x2="832.809" y2="582.192"/>
		
			<line display="inline" clip-path="url(#SVGID_2_)" fill="none" stroke="#FCE300" stroke-width="2" stroke-miterlimit="10" x1="931.229" y1="546.31" x2="950.041" y2="513.805"/>
		
			<line display="inline" clip-path="url(#SVGID_2_)" fill="none" stroke="#FCE300" stroke-width="2" stroke-miterlimit="10" x1="922.717" y1="542.3" x2="928.348" y2="527.099"/>
		
			<line display="inline" clip-path="url(#SVGID_2_)" fill="none" stroke="#FCE300" stroke-width="2" stroke-miterlimit="10" x1="938.945" y1="551.692" x2="949.32" y2="539.236"/>
		
			<line display="inline" clip-path="url(#SVGID_2_)" fill="none" stroke="#FCE300" stroke-width="2" stroke-miterlimit="10" x1="875.67" y1="642.306" x2="856.857" y2="674.811"/>
		
			<line display="inline" clip-path="url(#SVGID_2_)" fill="none" stroke="#FCE300" stroke-width="2" stroke-miterlimit="10" x1="867.953" y1="636.923" x2="857.578" y2="649.379"/>
		
			<line display="inline" clip-path="url(#SVGID_2_)" fill="none" stroke="#FCE300" stroke-width="2" stroke-miterlimit="10" x1="884.182" y1="646.315" x2="878.551" y2="661.517"/>
		
			<line display="inline" clip-path="url(#SVGID_2_)" fill="none" stroke="#FCE300" stroke-width="2" stroke-miterlimit="10" x1="951.447" y1="622.087" x2="983.952" y2="640.9"/>
		
			<line display="inline" clip-path="url(#SVGID_2_)" fill="none" stroke="#FCE300" stroke-width="2" stroke-miterlimit="10" x1="946.064" y1="629.805" x2="958.521" y2="640.18"/>
		
			<line display="inline" clip-path="url(#SVGID_2_)" fill="none" stroke="#FCE300" stroke-width="2" stroke-miterlimit="10" x1="955.457" y1="613.575" x2="970.658" y2="619.206"/>
		
			<line display="inline" clip-path="url(#SVGID_2_)" fill="none" stroke="#FCE300" stroke-width="2" stroke-miterlimit="10" x1="855.451" y1="566.528" x2="822.946" y2="547.716"/>
		
			<line display="inline" clip-path="url(#SVGID_2_)" fill="none" stroke="#FCE300" stroke-width="2" stroke-miterlimit="10" x1="851.441" y1="575.04" x2="836.24" y2="569.409"/>
		
			<line display="inline" clip-path="url(#SVGID_2_)" fill="none" stroke="#FCE300" stroke-width="2" stroke-miterlimit="10" x1="860.834" y1="558.812" x2="848.378" y2="548.437"/>
		
			<line display="inline" clip-path="url(#SVGID_2_)" fill="none" stroke="#FCE300" stroke-width="2" stroke-miterlimit="10" x1="951.535" y1="566.681" x2="984.099" y2="547.971"/>
		
			<line display="inline" clip-path="url(#SVGID_2_)" fill="none" stroke="#FCE300" stroke-width="2" stroke-miterlimit="10" x1="946.177" y1="558.946" x2="958.664" y2="548.611"/>
		
			<line display="inline" clip-path="url(#SVGID_2_)" fill="none" stroke="#FCE300" stroke-width="2" stroke-miterlimit="10" x1="955.518" y1="575.205" x2="970.736" y2="569.622"/>
		
			<line display="inline" clip-path="url(#SVGID_2_)" fill="none" stroke="#FCE300" stroke-width="2" stroke-miterlimit="10" x1="855.363" y1="621.935" x2="822.8" y2="640.645"/>
		
			<line display="inline" clip-path="url(#SVGID_2_)" fill="none" stroke="#FCE300" stroke-width="2" stroke-miterlimit="10" x1="851.381" y1="613.41" x2="836.161" y2="618.993"/>
		
			<line display="inline" clip-path="url(#SVGID_2_)" fill="none" stroke="#FCE300" stroke-width="2" stroke-miterlimit="10" x1="860.722" y1="629.669" x2="848.234" y2="640.004"/>
		
			<line display="inline" clip-path="url(#SVGID_2_)" fill="none" stroke="#FCE300" stroke-width="2" stroke-miterlimit="10" x1="931.076" y1="642.394" x2="949.786" y2="674.957"/>
		
			<line display="inline" clip-path="url(#SVGID_2_)" fill="none" stroke="#FCE300" stroke-width="2" stroke-miterlimit="10" x1="922.552" y1="646.377" x2="928.135" y2="661.596"/>
		
			<line display="inline" clip-path="url(#SVGID_2_)" fill="none" stroke="#FCE300" stroke-width="2" stroke-miterlimit="10" x1="938.811" y1="637.035" x2="949.146" y2="649.523"/>
		
			<line display="inline" clip-path="url(#SVGID_2_)" fill="none" stroke="#FCE300" stroke-width="2" stroke-miterlimit="10" x1="875.822" y1="546.223" x2="857.112" y2="513.658"/>
		
			<line display="inline" clip-path="url(#SVGID_2_)" fill="none" stroke="#FCE300" stroke-width="2" stroke-miterlimit="10" x1="868.088" y1="551.58" x2="857.753" y2="539.093"/>
		
			<line display="inline" clip-path="url(#SVGID_2_)" fill="none" stroke="#FCE300" stroke-width="2" stroke-miterlimit="10" x1="884.347" y1="542.239" x2="878.764" y2="527.021"/>
		<path display="inline" clip-path="url(#SVGID_2_)" fill="#FCE300" d="M570.545,732.89c0.54,0,1.037,0.471,1.037,0.471
			l-8.905,19.021c-0.976,0-3.315,0.139-3.888,0.139c-0.539,0-1.037-0.471-1.037-0.471l-3.045-19.021
			c1.847,0,4.156-0.139,4.848-0.139c0.542,0,1.037,0.471,1.037,0.471l0.932,9.306c0.08,0.802,0.086,1.914,0.054,3.086
			c0.3-1.279,0.629-2.49,0.951-3.308l3.702-9.418c1.642,0,3.68-0.137,4.313-0.137H570.545z"/>
		<path display="inline" clip-path="url(#SVGID_2_)" fill="#FCE300" d="M579.722,742.273c0,2.071-1.156,3.44-4.037,4.034
			l-3.022,0.624c0.232,1.303,1.051,1.939,2.41,1.939c1.665,0,2.779-1.257,2.779-1.257s0.85,0.474,0.85,1.446
			c0,1.726-2.646,3.599-5.725,3.599c-3.123,0-5.161-1.975-5.161-5.307c0-3.85,2.728-9.072,7.582-9.072
			C578.056,738.28,579.722,739.854,579.722,742.273 M574.611,744.264c0.645-0.203,0.838-0.735,0.838-1.344
			c0-0.573-0.186-1.43-0.851-1.43c-1.198,0-1.726,1.935-1.917,3.385L574.611,744.264z"/>
		<path display="inline" clip-path="url(#SVGID_2_)" fill="#FCE300" d="M587.859,738.28c2.449,0,4.29,1.298,4.29,2.983
			c0,2.107-2.552,2.878-2.552,2.878s-0.748-2.303-2.464-2.303c-1.162,0-1.831,1.177-1.831,3.684c0,2.31,0.607,3.349,2.102,3.349
			c1.533,0,2.477-1.044,2.477-1.044s0.851,0.474,0.851,1.419c0,1.651-2.542,3.412-5.501,3.412c-3.151,0-5.093-1.974-5.093-5.254
			c0-3.901,2.789-9.124,7.724-9.124H587.859z"/>
		<path display="inline" clip-path="url(#SVGID_2_)" fill="#FCE300" d="M599.628,735.206c0.59,0,0.983,0.45,0.983,0.45l-0.461,2.901
			h3.072l-0.693,2.212c-0.225,0.712-0.578,1.105-1.299,1.105h-1.605l-0.896,5.652c-0.146,0.914,0.054,1.337,0.676,1.344
			c0.565,0.004,1.123-0.345,1.123-0.345s0.857,0.478,0.857,1.374c0,1.384-1.974,2.758-4.471,2.758c-2.649,0-3.718-1.621-3.269-4.457
			l1-6.326h-1.667l0.726-2.308c0.187-0.591,0.675-1.01,1.272-1.01h0.811l0.972-2.671
			C597.962,735.592,599.082,735.206,599.628,735.206"/>
		<path display="inline" clip-path="url(#SVGID_2_)" fill="#FCE300" d="M614.549,742.273c0,2.071-1.155,3.44-4.036,4.034
			l-3.023,0.624c0.233,1.303,1.052,1.939,2.409,1.939c1.665,0,2.78-1.257,2.78-1.257s0.851,0.474,0.851,1.446
			c0,1.726-2.646,3.599-5.725,3.599c-3.124,0-5.161-1.975-5.161-5.307c0-3.85,2.727-9.072,7.582-9.072
			C612.884,738.28,614.55,739.854,614.549,742.273L614.549,742.273z M609.439,744.264c0.645-0.203,0.838-0.735,0.838-1.344
			c0-0.573-0.187-1.43-0.851-1.43c-1.198,0-1.728,1.935-1.917,3.385L609.439,744.264z"/>
		<path display="inline" clip-path="url(#SVGID_2_)" fill="#FCE300" d="M626.877,742.273c0,2.071-1.154,3.44-4.034,4.034
			l-3.023,0.624c0.232,1.303,1.051,1.939,2.409,1.939c1.667,0,2.779-1.257,2.779-1.257s0.852,0.474,0.852,1.446
			c0,1.726-2.646,3.599-5.725,3.599c-3.124,0-5.162-1.975-5.162-5.307c0-3.85,2.729-9.072,7.582-9.072
			c2.659,0,4.325,1.574,4.325,3.993H626.877z M621.77,744.264c0.645-0.203,0.838-0.735,0.838-1.344c0-0.573-0.188-1.43-0.851-1.43
			c-1.198,0-1.728,1.935-1.918,3.385L621.77,744.264z"/>
		<path display="inline" clip-path="url(#SVGID_2_)" fill="#FCE300" d="M636.965,747.438c0,0,1.039,0.96,1.039,2.548
			c0,2.118-1.794,2.673-3.297,2.673c-1.959,0-3.385-0.934-4.874-1.438c-0.415,0.479-0.822,0.959-1.212,1.438
			c0,0-2.208-0.056-2.208-1.56c0-1.834,3.057-4.979,6.351-8.544c-0.38-0.068-0.744-0.115-1.073-0.115
			c-1.872,0-2.598,0.937-2.598,0.937s-0.963-1.108-0.882-2.55c0.109-1.998,2.01-2.546,3.502-2.546c1.583,0,2.744,0.611,3.887,1.112
			l0.928-1.112c0,0,2.228,0.068,2.228,1.58c0,1.77-2.959,4.858-6.157,8.306c0.677,0.19,1.307,0.344,1.932,0.344
			C636.188,748.51,636.965,747.438,636.965,747.438"/>
		<path display="inline" clip-path="url(#SVGID_2_)" fill="#FCE300" d="M651.299,751.438c-0.795,4.842-4.113,7.303-8.314,7.303
			c-2.683,0-4.685-1.409-4.685-3.042c0-1.077,0.897-1.576,0.897-1.576s0.911,0.83,2.71,0.83c1.686,0,3.972-0.719,4.374-3.264
			l0.314-1.98c-1.132,1.628-2.634,2.949-4.53,2.949c-2.132,0-3.081-1.744-2.52-5.288l0.606-3.836
			c0.373-2.35,0.476-4.267,0.476-4.267c1.517-0.28,3.517-0.987,4.217-0.987c0.542,0,1.045,0.452,1.045,0.452l-0.76,4.802
			l-0.702,4.43c-0.064,0.408,0.013,0.638,0.383,0.638c1.767,0,2.763-5.067,2.763-5.067c0.372-2.35,0.475-4.267,0.475-4.267
			c1.515-0.28,3.516-0.987,4.216-0.987c0.543,0,1.046,0.452,1.046,0.452l-0.761,4.802L651.299,751.438z"/>
		<path display="inline" clip-path="url(#SVGID_2_)" fill="#FCE300" d="M446.551,739.057h4.755c1.073,0,1.89,0.082,2.452,0.246
			c0.756,0.223,1.404,0.618,1.943,1.187s0.949,1.265,1.23,2.087c0.282,0.824,0.422,1.839,0.422,3.046
			c0,1.061-0.132,1.975-0.395,2.742c-0.323,0.938-0.783,1.696-1.38,2.276c-0.451,0.439-1.061,0.782-1.828,1.028
			c-0.575,0.182-1.342,0.272-2.303,0.272h-4.896V739.057z M449.153,741.236v8.534h1.942c0.727,0,1.251-0.041,1.574-0.123
			c0.422-0.105,0.772-0.284,1.05-0.536s0.505-0.666,0.681-1.244c0.176-0.576,0.264-1.363,0.264-2.36c0-0.995-0.088-1.76-0.264-2.293
			c-0.176-0.533-0.422-0.949-0.738-1.248c-0.317-0.299-0.718-0.501-1.204-0.606c-0.364-0.082-1.076-0.123-2.136-0.123H449.153z"/>
		<path display="inline" clip-path="url(#SVGID_2_)" fill="#FCE300" d="M464.587,748.971l2.461,0.413
			c-0.316,0.902-0.816,1.59-1.498,2.062c-0.683,0.472-1.537,0.707-2.562,0.707c-1.623,0-2.824-0.529-3.604-1.591
			c-0.615-0.85-0.923-1.922-0.923-3.217c0-1.547,0.405-2.758,1.213-3.634c0.809-0.876,1.831-1.314,3.068-1.314
			c1.388,0,2.484,0.459,3.287,1.375c0.802,0.918,1.186,2.322,1.151,4.215h-6.187c0.017,0.732,0.217,1.303,0.597,1.709
			c0.381,0.408,0.856,0.611,1.424,0.611c0.387,0,0.712-0.105,0.976-0.316C464.253,749.779,464.453,749.439,464.587,748.971
			 M464.728,746.475c-0.018-0.715-0.202-1.258-0.554-1.631c-0.351-0.371-0.779-0.558-1.283-0.558c-0.539,0-0.984,0.196-1.336,0.589
			c-0.351,0.393-0.524,0.926-0.518,1.6H464.728z"/>
		<path display="inline" clip-path="url(#SVGID_2_)" fill="#FCE300" d="M467.962,749.278l2.478-0.378
			c0.106,0.48,0.32,0.846,0.642,1.094c0.322,0.25,0.774,0.374,1.354,0.374c0.638,0,1.119-0.117,1.441-0.352
			c0.217-0.164,0.325-0.385,0.325-0.659c0-0.188-0.058-0.343-0.176-0.466c-0.123-0.117-0.398-0.226-0.826-0.325
			c-1.992-0.439-3.255-0.841-3.788-1.204c-0.738-0.504-1.107-1.204-1.107-2.101c0-0.809,0.319-1.488,0.958-2.039
			c0.638-0.551,1.629-0.826,2.97-0.826c1.278,0,2.227,0.208,2.848,0.624c0.621,0.416,1.049,1.031,1.283,1.846l-2.329,0.431
			c-0.099-0.363-0.288-0.642-0.567-0.835c-0.278-0.193-0.675-0.29-1.191-0.29c-0.65,0-1.116,0.091-1.397,0.272
			c-0.188,0.129-0.281,0.296-0.281,0.501c0,0.176,0.082,0.325,0.246,0.448c0.222,0.164,0.991,0.396,2.307,0.694
			c1.315,0.299,2.234,0.665,2.755,1.099c0.516,0.439,0.774,1.052,0.774,1.837c0,0.855-0.358,1.591-1.073,2.206
			c-0.714,0.615-1.772,0.923-3.172,0.923c-1.272,0-2.278-0.258-3.019-0.773C468.675,750.863,468.19,750.163,467.962,749.278"/>
		<path display="inline" clip-path="url(#SVGID_2_)" fill="#FCE300" d="M478.483,739.057h2.47v2.285h-2.47V739.057z
			 M478.483,742.607h2.47v9.334h-2.47V742.607z"/>
		<path display="inline" clip-path="url(#SVGID_2_)" fill="#FCE300" d="M482.896,752.556l2.821,0.344
			c0.047,0.328,0.156,0.554,0.325,0.677c0.235,0.176,0.604,0.264,1.108,0.264c0.644,0,1.128-0.097,1.45-0.29
			c0.217-0.129,0.381-0.337,0.492-0.624c0.076-0.205,0.114-0.583,0.114-1.134v-1.362c-0.738,1.008-1.669,1.512-2.794,1.512
			c-1.254,0-2.247-0.53-2.98-1.59c-0.574-0.839-0.861-1.882-0.861-3.13c0-1.564,0.376-2.76,1.129-3.586
			c0.753-0.825,1.689-1.239,2.808-1.239c1.155,0,2.107,0.507,2.857,1.521v-1.31h2.311v8.376c0,1.102-0.091,1.925-0.272,2.47
			c-0.182,0.545-0.437,0.973-0.765,1.283s-0.766,0.554-1.314,0.729c-0.548,0.177-1.241,0.264-2.078,0.264
			c-1.583,0-2.705-0.271-3.367-0.813c-0.662-0.542-0.993-1.229-0.993-2.061C482.887,752.773,482.89,752.674,482.896,752.556
			 M485.102,747.081c0,0.99,0.192,1.716,0.576,2.175c0.383,0.461,0.857,0.69,1.419,0.69c0.604,0,1.113-0.235,1.529-0.708
			c0.416-0.471,0.624-1.17,0.624-2.096c0-0.967-0.199-1.685-0.597-2.153c-0.399-0.469-0.903-0.703-1.512-0.703
			c-0.592,0-1.08,0.231-1.463,0.69C485.294,745.437,485.102,746.138,485.102,747.081"/>
		<path display="inline" clip-path="url(#SVGID_2_)" fill="#FCE300" d="M502.25,751.941h-2.47v-4.764
			c0-1.009-0.053-1.659-0.158-1.955s-0.277-0.526-0.514-0.69s-0.523-0.246-0.857-0.246c-0.428,0-0.812,0.117-1.151,0.352
			c-0.34,0.234-0.573,0.545-0.699,0.932s-0.189,1.101-0.189,2.145v4.228h-2.47v-9.334h2.294v1.371
			c0.815-1.055,1.84-1.582,3.076-1.582c0.545,0,1.043,0.099,1.494,0.295c0.452,0.196,0.793,0.446,1.024,0.751
			c0.232,0.305,0.393,0.65,0.484,1.037c0.091,0.387,0.136,0.939,0.136,1.661V751.941z"/>
		<path display="inline" clip-path="url(#SVGID_2_)" fill="#FCE300" d="M509.799,748.971l2.461,0.413
			c-0.316,0.902-0.816,1.59-1.498,2.062c-0.683,0.472-1.537,0.707-2.562,0.707c-1.623,0-2.824-0.529-3.604-1.591
			c-0.615-0.85-0.923-1.922-0.923-3.217c0-1.547,0.405-2.758,1.213-3.634c0.809-0.876,1.831-1.314,3.068-1.314
			c1.388,0,2.484,0.459,3.287,1.375c0.802,0.918,1.186,2.322,1.151,4.215h-6.187c0.017,0.732,0.216,1.303,0.597,1.709
			c0.381,0.408,0.856,0.611,1.424,0.611c0.387,0,0.712-0.105,0.976-0.316C509.465,749.779,509.666,749.439,509.799,748.971
			 M509.94,746.475c-0.018-0.715-0.202-1.258-0.554-1.631c-0.351-0.371-0.779-0.558-1.283-0.558c-0.539,0-0.984,0.196-1.336,0.589
			c-0.351,0.393-0.524,0.926-0.518,1.6H509.94z"/>
		<path display="inline" clip-path="url(#SVGID_2_)" fill="#FCE300" d="M522.606,751.941h-2.294v-1.371
			c-0.381,0.533-0.831,0.931-1.349,1.191c-0.519,0.26-1.042,0.391-1.569,0.391c-1.072,0-1.991-0.432-2.755-1.297
			c-0.765-0.863-1.147-2.069-1.147-3.616c0-1.582,0.372-2.784,1.116-3.608c0.744-0.822,1.684-1.234,2.821-1.234
			c1.043,0,1.945,0.434,2.707,1.301v-4.641h2.47V751.941z M516.014,747.072c0,0.996,0.138,1.717,0.413,2.162
			c0.399,0.645,0.955,0.967,1.67,0.967c0.568,0,1.052-0.242,1.45-0.725c0.399-0.484,0.598-1.206,0.598-2.167
			c0-1.072-0.193-1.844-0.58-2.315c-0.387-0.472-0.882-0.708-1.486-0.708c-0.585,0-1.076,0.233-1.472,0.698
			C516.212,745.451,516.014,746.146,516.014,747.072"/>
		<path display="inline" clip-path="url(#SVGID_2_)" fill="#FCE300" d="M529.216,751.941v-12.885h2.469v4.641
			c0.762-0.867,1.665-1.301,2.708-1.301c1.136,0,2.077,0.412,2.821,1.234c0.744,0.824,1.116,2.006,1.116,3.547
			c0,1.594-0.379,2.821-1.138,3.683c-0.759,0.861-1.68,1.292-2.764,1.292c-0.534,0-1.059-0.134-1.578-0.4
			c-0.519-0.266-0.965-0.659-1.34-1.182v1.371H529.216z M531.668,747.072c0,0.967,0.152,1.682,0.457,2.146
			c0.428,0.655,0.996,0.983,1.705,0.983c0.545,0,1.009-0.232,1.393-0.699c0.384-0.465,0.576-1.199,0.576-2.2
			c0-1.067-0.194-1.836-0.58-2.308c-0.387-0.472-0.882-0.708-1.486-0.708c-0.591,0-1.084,0.23-1.476,0.69
			C531.864,745.437,531.668,746.136,531.668,747.072"/>
		<path display="inline" clip-path="url(#SVGID_2_)" fill="#FCE300" d="M538.788,742.607h2.628l2.232,6.627l2.18-6.627h2.558
			l-3.296,8.982l-0.589,1.626c-0.217,0.545-0.424,0.961-0.62,1.249c-0.196,0.286-0.422,0.519-0.676,0.697
			c-0.255,0.179-0.569,0.318-0.941,0.418s-0.792,0.149-1.261,0.149c-0.475,0-0.941-0.05-1.398-0.149l-0.219-1.934
			c0.386,0.076,0.735,0.114,1.046,0.114c0.574,0,0.999-0.169,1.274-0.504c0.275-0.339,0.486-0.768,0.633-1.289L538.788,742.607z"/>
	</g>
</g>
<g id="Layer_3">
	<g>
		<g>
			<circle fill="none" stroke="#FFFFFF" stroke-width="2" stroke-miterlimit="10" cx="90.983" cy="91.983" r="53.65"/>
			<path fill="none" stroke="#FFFFFF" stroke-width="2" stroke-miterlimit="10" d="M92.324,38.333
				c1.96-6.252-4.19-10.177-7.928-13.969c-5.078-5.151-7.272-14.009-1.559-19.619c2.782-2.731,7.254-3.613,10.767-1.783
				c3.16,1.647,4.829,5.568,3.754,8.996c-1.105,3.518-5.329,5.307-8.687,3.81c-4.674-2.083-3.88-10.185,1.981-9.201"/>
			<path fill="none" stroke="#FFFFFF" stroke-width="2" stroke-miterlimit="10" d="M89.644,145.633
				c-1.962,6.251,4.19,10.178,7.926,13.969c5.079,5.151,7.272,14.007,1.559,19.619c-2.782,2.729-7.255,3.612-10.766,1.783
				c-3.161-1.647-4.83-5.569-3.753-8.997c1.105-3.519,5.327-5.308,8.685-3.811c4.675,2.083,3.88,10.187-1.979,9.2"/>
			<path fill="none" stroke="#FFFFFF" stroke-width="2" stroke-miterlimit="10" d="M144.633,93.324
				c6.253,1.96,10.179-4.191,13.971-7.927c5.151-5.078,14.007-7.273,19.617-1.56c2.732,2.781,3.613,7.254,1.784,10.767
				c-1.647,3.161-5.568,4.83-8.996,3.754c-3.519-1.105-5.308-5.328-3.811-8.685c2.083-4.674,10.186-3.882,9.201,1.979"/>
			<path fill="none" stroke="#FFFFFF" stroke-width="2" stroke-miterlimit="10" d="M37.333,90.642
				c-6.252-1.959-10.178,4.191-13.969,7.927c-5.151,5.078-14.009,7.272-19.619,1.56c-2.729-2.781-3.613-7.254-1.784-10.766
				c1.648-3.162,5.571-4.831,8.999-3.754c3.518,1.105,5.305,5.328,3.81,8.685c-2.083,4.675-10.187,3.881-9.2-1.979"/>
			<path fill="none" stroke="#FFFFFF" stroke-width="2" stroke-miterlimit="10" d="M112.61,42.867
				c4.187-5.04-0.01-11.007-2.025-15.936c-2.741-6.694-1.406-15.72,6.011-18.738c3.611-1.47,8.082-0.585,10.636,2.441
				c2.3,2.726,2.353,6.986,0.055,9.748c-2.359,2.835-6.946,2.884-9.482,0.226c-3.532-3.704,0.28-10.899,5.328-7.76"/>
			<path fill="none" stroke="#FFFFFF" stroke-width="2" stroke-miterlimit="10" d="M69.357,141.101
				c-4.189,5.04,0.01,11.006,2.026,15.932c2.738,6.695,1.404,15.721-6.012,18.74c-3.611,1.47-8.083,0.586-10.636-2.441
				c-2.3-2.726-2.354-6.986-0.054-9.748c2.357-2.834,6.944-2.885,9.481-0.226c3.531,3.705-0.28,10.898-5.329,7.76"/>
			<path fill="none" stroke="#FFFFFF" stroke-width="2" stroke-miterlimit="10" d="M140.101,113.609
				c5.038,4.189,11.006-0.009,15.934-2.024c6.694-2.739,15.72-1.405,18.739,6.012c1.468,3.61,0.584,8.083-2.442,10.637
				c-2.725,2.299-6.987,2.352-9.748,0.053c-2.834-2.358-2.883-6.944-0.226-9.48c3.706-3.533,10.898,0.28,7.76,5.327"/>
			<path fill="none" stroke="#FFFFFF" stroke-width="2" stroke-miterlimit="10" d="M41.866,70.358
				c-5.04-4.189-11.006,0.008-15.935,2.024c-6.694,2.739-15.72,1.405-18.737-6.013c-1.47-3.61-0.586-8.082,2.441-10.636
				c2.725-2.299,6.986-2.353,9.749-0.054c2.833,2.358,2.885,6.944,0.224,9.48c-3.704,3.532-10.897-0.28-7.758-5.327"/>
			<path fill="none" stroke="#FFFFFF" stroke-width="2" stroke-miterlimit="10" d="M129.649,54.767
				c5.789-3.069,4.176-10.185,4.184-15.509c0.01-7.231,4.673-15.075,12.683-15.049c3.898,0.013,7.697,2.53,8.908,6.3
				c1.093,3.394-0.477,7.356-3.653,9.037c-3.258,1.727-7.519,0.03-8.854-3.394c-1.862-4.767,4.4-9.973,7.875-5.153"/>
			<path fill="none" stroke="#FFFFFF" stroke-width="2" stroke-miterlimit="10" d="M52.316,129.198
				c-5.789,3.071-4.174,10.186-4.181,15.509c-0.012,7.233-4.675,15.075-12.683,15.049c-3.898-0.014-7.698-2.53-8.911-6.301
				c-1.091-3.395,0.477-7.354,3.654-9.037c3.259-1.726,7.52-0.03,8.855,3.395c1.86,4.767-4.4,9.973-7.875,5.152"/>
			<path fill="none" stroke="#FFFFFF" stroke-width="2" stroke-miterlimit="10" d="M128.198,130.65
				c3.07,5.789,10.186,4.174,15.509,4.183c7.233,0.01,15.076,4.672,15.049,12.681c-0.013,3.897-2.53,7.697-6.301,8.909
				c-3.394,1.091-7.355-0.479-9.035-3.654c-1.728-3.257-0.031-7.519,3.394-8.854c4.767-1.86,9.973,4.4,5.152,7.874"/>
			<path fill="none" stroke="#FFFFFF" stroke-width="2" stroke-miterlimit="10" d="M53.768,53.316
				c-3.07-5.79-10.184-4.175-15.509-4.182c-7.232-0.01-15.074-4.674-15.047-12.683c0.011-3.896,2.528-7.697,6.299-8.91
				c3.394-1.091,7.355,0.478,9.037,3.654c1.726,3.259,0.031,7.521-3.393,8.856c-4.77,1.859-9.976-4.402-5.155-7.876"/>
			<path fill="none" stroke="#FFFFFF" stroke-width="2" stroke-miterlimit="10" d="M140.892,72.251
				c6.521-0.639,7.733-7.835,9.761-12.756c2.756-6.687,10.05-12.168,17.448-9.102c3.601,1.493,6.16,5.266,5.85,9.214
				c-0.281,3.554-3.238,6.622-6.816,6.97c-3.668,0.359-6.966-2.831-6.9-6.504c0.091-5.118,7.86-7.553,9.241-1.775"/>
			<path fill="none" stroke="#FFFFFF" stroke-width="2" stroke-miterlimit="10" d="M41.077,111.715
				c-6.524,0.64-7.733,7.834-9.762,12.756c-2.757,6.687-10.052,12.168-17.45,9.102c-3.601-1.493-6.16-5.265-5.847-9.213
				c0.279-3.554,3.236-6.623,6.813-6.972c3.671-0.358,6.966,2.831,6.901,6.504c-0.093,5.118-7.86,7.555-9.244,1.775"/>
			<path fill="none" stroke="#FFFFFF" stroke-width="2" stroke-miterlimit="10" d="M110.715,141.891
				c0.641,6.521,7.835,7.731,12.756,9.76c6.687,2.758,12.168,10.053,9.102,17.448c-1.493,3.601-5.267,6.16-9.213,5.849
				c-3.554-0.28-6.623-3.236-6.97-6.813c-0.359-3.67,2.831-6.967,6.502-6.902c5.12,0.092,7.555,7.861,1.775,9.244"/>
			<path fill="none" stroke="#FFFFFF" stroke-width="2" stroke-miterlimit="10" d="M71.251,42.075
				c-0.638-6.521-7.833-7.73-12.755-9.761c-6.687-2.756-12.169-10.051-9.102-17.449c1.492-3.6,5.266-6.158,9.213-5.847
				c3.556,0.279,6.622,3.238,6.97,6.813c0.36,3.669-2.828,6.966-6.502,6.902c-5.117-0.092-7.553-7.86-1.775-9.243"/>
		</g>
		<g>
			<path fill="#FFFFFF" d="M210.643,51.468h14.953c2.257,0,4.213,0.235,5.868,0.705c1.655,0.47,3.028,1.151,4.119,2.041
				c1.091,0.891,1.903,1.975,2.436,3.254c0.533,1.279,0.799,2.727,0.799,4.345c0,1.091-0.132,2.129-0.395,3.113
				c-0.263,0.985-0.667,1.891-1.213,2.718c-0.545,0.828-1.232,1.564-2.06,2.21c-0.827,0.646-1.799,1.182-2.915,1.608l6.395,9.404
				h-7.298l-5.53-8.351h-0.169l-9.028-0.019v8.37h-5.962V51.468z M225.746,67.342c1.128,0,2.116-0.131,2.962-0.395
				c0.846-0.263,1.555-0.633,2.125-1.109c0.57-0.477,0.997-1.056,1.279-1.74c0.282-0.684,0.423-1.445,0.423-2.286
				c0-1.643-0.564-2.912-1.693-3.809s-2.828-1.345-5.097-1.345h-9.141v10.683H225.746z"/>
			<path fill="#FFFFFF" d="M244.123,73.869c0-1.065,0.232-2.038,0.696-2.916c0.464-0.877,1.16-1.633,2.088-2.266
				s2.085-1.122,3.47-1.467c1.386-0.345,3-0.517,4.844-0.517c1.366,0,2.805,0.101,4.316,0.301c1.511,0.201,3.069,0.508,4.674,0.922
				c-0.063-0.702-0.276-1.351-0.64-1.947c-0.364-0.596-0.869-1.11-1.514-1.542c-0.646-0.433-1.423-0.768-2.333-1.006
				c-0.909-0.238-1.94-0.357-3.094-0.357c-0.627,0-1.317,0.038-2.069,0.113s-1.53,0.188-2.332,0.339
				c-0.803,0.15-1.596,0.338-2.379,0.564c-0.784,0.226-1.514,0.496-2.191,0.809l-1.693-4.571c0.84-0.301,1.74-0.577,2.699-0.828
				c0.959-0.25,1.94-0.467,2.944-0.649c1.003-0.182,2.006-0.323,3.009-0.423c1.003-0.1,1.975-0.15,2.916-0.15
				c4.15,0,7.235,1.06,9.254,3.179c2.019,2.12,3.028,5.367,3.028,9.743v9.668h-5.567v-2.088c-0.577,0.339-1.207,0.658-1.891,0.959
				c-0.684,0.301-1.426,0.564-2.229,0.79c-0.803,0.226-1.665,0.404-2.586,0.536c-0.922,0.132-1.897,0.198-2.925,0.198
				c-1.73,0-3.251-0.188-4.561-0.564c-1.311-0.376-2.405-0.896-3.282-1.561c-0.878-0.665-1.54-1.445-1.984-2.342
				C244.345,75.897,244.123,74.922,244.123,73.869z M249.991,73.681c0,0.364,0.094,0.712,0.282,1.044
				c0.188,0.333,0.489,0.627,0.903,0.884c0.414,0.257,0.943,0.464,1.589,0.621c0.646,0.157,1.426,0.235,2.341,0.235
				c0.979,0,1.925-0.087,2.84-0.263c0.915-0.176,1.768-0.407,2.558-0.696s1.505-0.621,2.144-0.997
				c0.64-0.376,1.172-0.765,1.599-1.166v-0.978c-0.853-0.238-1.696-0.439-2.53-0.602c-0.834-0.163-1.63-0.292-2.389-0.386
				c-0.759-0.094-1.473-0.16-2.144-0.197s-1.257-0.057-1.759-0.057c-1.041,0-1.906,0.069-2.596,0.207
				c-0.689,0.138-1.248,0.323-1.674,0.555c-0.426,0.232-0.728,0.505-0.903,0.818C250.079,73.017,249.991,73.343,249.991,73.681z"/>
			<path fill="#FFFFFF" d="M288.907,69.694c0-1.505,0.307-2.944,0.922-4.317c0.614-1.373,1.498-2.586,2.652-3.64
				s2.567-1.893,4.242-2.521c1.674-0.626,3.577-0.94,5.708-0.94c2.119,0,4.028,0.317,5.727,0.95s3.141,1.501,4.326,2.605
				s2.094,2.401,2.728,3.894c0.633,1.492,0.95,3.091,0.95,4.796c0,0.213-0.003,0.442-0.009,0.687
				c-0.006,0.245-0.022,0.467-0.047,0.668h-20.991c0.238,0.665,0.624,1.273,1.157,1.825c0.533,0.552,1.201,1.028,2.003,1.429
				c0.802,0.401,1.73,0.712,2.784,0.931c1.053,0.22,2.219,0.329,3.499,0.329c1.279,0,2.551-0.135,3.818-0.404
				s2.477-0.611,3.63-1.025l1.881,4.251c-0.728,0.339-1.464,0.637-2.21,0.894c-0.746,0.257-1.523,0.47-2.333,0.64
				c-0.809,0.169-1.655,0.297-2.539,0.385c-0.884,0.088-1.815,0.132-2.793,0.132c-2.496,0-4.684-0.301-6.564-0.903
				s-3.455-1.423-4.721-2.464c-1.267-1.041-2.22-2.263-2.859-3.668C289.227,72.822,288.907,71.311,288.907,69.694z M310.255,67.531
				c-0.201-0.614-0.511-1.188-0.931-1.721c-0.42-0.533-0.944-0.997-1.571-1.392s-1.354-0.705-2.182-0.931
				c-0.828-0.226-1.737-0.339-2.728-0.339c-1.053,0-2.013,0.12-2.877,0.357c-0.865,0.238-1.625,0.558-2.276,0.959
				s-1.194,0.865-1.627,1.392c-0.433,0.527-0.749,1.085-0.95,1.674H310.255z"/>
			<path fill="#FFFFFF" d="M322.293,58.671h5.567v1.881c1.392-0.853,2.749-1.445,4.072-1.777c1.323-0.332,2.617-0.499,3.884-0.499
				c1.768,0,3.392,0.282,4.872,0.847c1.479,0.564,2.746,1.417,3.799,2.558c0.815-0.627,1.618-1.157,2.408-1.589
				s1.58-0.784,2.37-1.054c0.79-0.27,1.592-0.463,2.407-0.583c0.815-0.119,1.655-0.179,2.521-0.179c1.818,0,3.467,0.248,4.947,0.743
				c1.479,0.496,2.743,1.232,3.79,2.21s1.855,2.198,2.426,3.658c0.571,1.461,0.856,3.151,0.856,5.069v10.909h-5.549V70.86
				c0-1.216-0.172-2.304-0.517-3.264c-0.345-0.959-0.828-1.768-1.448-2.426s-1.361-1.16-2.22-1.504s-1.803-0.518-2.831-0.518
				c-0.564,0-1.141,0.054-1.73,0.16s-1.163,0.272-1.721,0.498c-0.558,0.226-1.082,0.511-1.57,0.856
				c-0.489,0.345-0.916,0.75-1.279,1.213v14.991h-5.548V70.86c0-1.216-0.173-2.304-0.518-3.264
				c-0.345-0.959-0.827-1.768-1.448-2.426c-0.621-0.658-1.367-1.16-2.238-1.504s-1.828-0.518-2.868-0.518
				c-0.64,0-1.282,0.066-1.928,0.198c-0.646,0.131-1.267,0.317-1.862,0.555c-0.596,0.238-1.154,0.527-1.674,0.865
				c-0.521,0.338-0.988,0.721-1.401,1.147v14.953h-5.567V58.671z"/>
			<path fill="#FFFFFF" d="M385.999,49.681h5.568v10.684c1.166-0.64,2.467-1.147,3.903-1.523c1.436-0.376,2.943-0.564,4.523-0.564
				c1.831,0,3.477,0.27,4.938,0.809c1.46,0.539,2.699,1.313,3.715,2.323c1.016,1.01,1.796,2.235,2.341,3.677
				c0.546,1.442,0.818,3.066,0.818,4.872v10.909h-5.549V70.183c0-1.053-0.169-2.016-0.508-2.887
				c-0.338-0.871-0.834-1.621-1.486-2.248s-1.445-1.113-2.379-1.458c-0.934-0.345-1.991-0.518-3.169-0.518
				c-1.417,0-2.734,0.226-3.95,0.677c-1.216,0.451-2.282,1.022-3.197,1.711v15.405h-5.568V49.681z"/>
			<path fill="#FFFFFF" d="M416.978,69.694c0-1.505,0.307-2.944,0.922-4.317c0.614-1.373,1.498-2.586,2.652-3.64
				s2.567-1.893,4.242-2.521c1.674-0.626,3.577-0.94,5.708-0.94c2.119,0,4.028,0.317,5.727,0.95s3.141,1.501,4.326,2.605
				s2.094,2.401,2.728,3.894c0.633,1.492,0.95,3.091,0.95,4.796c0,0.213-0.003,0.442-0.009,0.687
				c-0.006,0.245-0.022,0.467-0.047,0.668h-20.991c0.238,0.665,0.624,1.273,1.157,1.825c0.533,0.552,1.201,1.028,2.003,1.429
				c0.802,0.401,1.73,0.712,2.784,0.931c1.053,0.22,2.219,0.329,3.499,0.329c1.279,0,2.551-0.135,3.818-0.404
				s2.477-0.611,3.63-1.025l1.881,4.251c-0.728,0.339-1.464,0.637-2.21,0.894c-0.746,0.257-1.523,0.47-2.333,0.64
				c-0.809,0.169-1.655,0.297-2.539,0.385c-0.884,0.088-1.815,0.132-2.793,0.132c-2.496,0-4.684-0.301-6.564-0.903
				s-3.455-1.423-4.721-2.464c-1.267-1.041-2.22-2.263-2.859-3.668C417.297,72.822,416.978,71.311,416.978,69.694z M438.326,67.531
				c-0.201-0.614-0.511-1.188-0.931-1.721c-0.42-0.533-0.944-0.997-1.571-1.392s-1.354-0.705-2.182-0.931
				c-0.828-0.226-1.737-0.339-2.728-0.339c-1.053,0-2.013,0.12-2.877,0.357c-0.865,0.238-1.625,0.558-2.276,0.959
				s-1.194,0.865-1.627,1.392c-0.433,0.527-0.749,1.085-0.95,1.674H438.326z"/>
			<path fill="#FFFFFF" d="M450.213,58.671h5.568v1.881c1.479-0.84,2.893-1.429,4.241-1.768c1.348-0.338,2.667-0.508,3.959-0.508
				c1.693,0,3.26,0.248,4.702,0.743c1.442,0.496,2.689,1.232,3.743,2.21c1.053,0.978,1.877,2.198,2.473,3.658
				c0.596,1.461,0.894,3.151,0.894,5.069v10.909h-5.549V70.86c0-1.216-0.172-2.304-0.517-3.264c-0.345-0.959-0.84-1.768-1.486-2.426
				c-0.646-0.658-1.43-1.16-2.351-1.504c-0.922-0.345-1.954-0.518-3.094-0.518c-0.602,0-1.22,0.063-1.853,0.188
				c-0.633,0.125-1.254,0.304-1.862,0.536c-0.608,0.232-1.194,0.521-1.759,0.865c-0.564,0.345-1.079,0.737-1.542,1.176v14.953
				h-5.568V58.671z"/>
			<path fill="#FFFFFF" d="M481.568,69.694c0-1.505,0.307-2.944,0.922-4.317c0.614-1.373,1.498-2.586,2.652-3.64
				s2.567-1.893,4.242-2.521c1.674-0.626,3.577-0.94,5.708-0.94c2.119,0,4.028,0.317,5.727,0.95s3.141,1.501,4.326,2.605
				s2.094,2.401,2.728,3.894c0.633,1.492,0.95,3.091,0.95,4.796c0,0.213-0.003,0.442-0.009,0.687
				c-0.006,0.245-0.022,0.467-0.047,0.668h-20.991c0.238,0.665,0.624,1.273,1.157,1.825c0.533,0.552,1.201,1.028,2.003,1.429
				c0.802,0.401,1.73,0.712,2.784,0.931c1.053,0.22,2.219,0.329,3.499,0.329c1.279,0,2.551-0.135,3.818-0.404
				s2.477-0.611,3.63-1.025l1.881,4.251c-0.728,0.339-1.464,0.637-2.21,0.894c-0.746,0.257-1.523,0.47-2.333,0.64
				c-0.809,0.169-1.655,0.297-2.539,0.385c-0.884,0.088-1.815,0.132-2.793,0.132c-2.496,0-4.684-0.301-6.564-0.903
				s-3.455-1.423-4.721-2.464c-1.267-1.041-2.22-2.263-2.859-3.668C481.888,72.822,481.568,71.311,481.568,69.694z M502.916,67.531
				c-0.201-0.614-0.511-1.188-0.931-1.721c-0.42-0.533-0.944-0.997-1.571-1.392s-1.354-0.705-2.182-0.931
				c-0.828-0.226-1.737-0.339-2.728-0.339c-1.053,0-2.013,0.12-2.877,0.357c-0.865,0.238-1.625,0.558-2.276,0.959
				s-1.194,0.865-1.627,1.392c-0.433,0.527-0.749,1.085-0.95,1.674H502.916z"/>
			<path fill="#FFFFFF" d="M514.804,58.671h5.568v1.881c1.479-0.84,2.893-1.429,4.241-1.768c1.348-0.338,2.667-0.508,3.959-0.508
				c1.693,0,3.26,0.248,4.702,0.743c1.442,0.496,2.689,1.232,3.743,2.21c1.053,0.978,1.877,2.198,2.473,3.658
				c0.596,1.461,0.894,3.151,0.894,5.069v10.909h-5.549V70.86c0-1.216-0.172-2.304-0.517-3.264c-0.345-0.959-0.84-1.768-1.486-2.426
				c-0.646-0.658-1.43-1.16-2.351-1.504c-0.922-0.345-1.954-0.518-3.094-0.518c-0.602,0-1.22,0.063-1.853,0.188
				c-0.633,0.125-1.254,0.304-1.862,0.536c-0.608,0.232-1.194,0.521-1.759,0.865c-0.564,0.345-1.079,0.737-1.542,1.176v14.953
				h-5.568V58.671z"/>
			<path fill="#FFFFFF" d="M210.643,97.693h26.295v5.229h-20.333v7.693h17.267v4.909h-17.267v11.567h-5.962V97.693z"/>
			<path fill="#FFFFFF" d="M240.944,115.919c0-1.505,0.307-2.944,0.922-4.317c0.614-1.373,1.498-2.586,2.652-3.64
				s2.567-1.893,4.242-2.521c1.674-0.626,3.577-0.94,5.708-0.94c2.119,0,4.028,0.317,5.727,0.95s3.141,1.501,4.326,2.605
				s2.094,2.401,2.728,3.894c0.633,1.492,0.95,3.091,0.95,4.796c0,0.213-0.003,0.442-0.009,0.687
				c-0.006,0.245-0.022,0.467-0.047,0.668h-20.991c0.238,0.665,0.624,1.273,1.157,1.825c0.533,0.552,1.201,1.028,2.003,1.429
				c0.802,0.401,1.73,0.712,2.784,0.931c1.053,0.22,2.219,0.329,3.499,0.329c1.279,0,2.551-0.135,3.818-0.404
				s2.477-0.611,3.63-1.025l1.881,4.251c-0.728,0.339-1.464,0.637-2.21,0.894c-0.746,0.257-1.523,0.47-2.333,0.64
				c-0.809,0.169-1.655,0.297-2.539,0.385c-0.884,0.088-1.815,0.132-2.793,0.132c-2.496,0-4.684-0.301-6.564-0.903
				s-3.455-1.423-4.721-2.464c-1.267-1.041-2.22-2.263-2.859-3.668C241.264,119.047,240.944,117.536,240.944,115.919z
				 M262.292,113.756c-0.201-0.614-0.511-1.188-0.931-1.721c-0.42-0.533-0.944-0.997-1.571-1.392s-1.354-0.705-2.182-0.931
				c-0.828-0.226-1.737-0.339-2.728-0.339c-1.053,0-2.013,0.12-2.877,0.357c-0.865,0.238-1.625,0.558-2.276,0.959
				s-1.194,0.865-1.627,1.392c-0.433,0.527-0.749,1.085-0.95,1.674H262.292z"/>
			<path fill="#FFFFFF" d="M275.063,120.282c1.505,0.903,3.16,1.568,4.965,1.994s3.655,0.639,5.549,0.639
				c1.279,0,2.345-0.087,3.198-0.263c0.853-0.175,1.536-0.401,2.05-0.677c0.514-0.275,0.878-0.589,1.091-0.94
				c0.213-0.351,0.319-0.708,0.319-1.072c0-0.527-0.229-0.979-0.687-1.354c-0.458-0.376-1.213-0.564-2.266-0.564
				c-0.489,0-1.016,0.032-1.58,0.094c-0.564,0.063-1.157,0.129-1.777,0.197c-0.621,0.069-1.267,0.135-1.938,0.198
				c-0.671,0.063-1.351,0.094-2.041,0.094c-1.505,0-2.787-0.163-3.847-0.489c-1.06-0.326-1.922-0.771-2.586-1.335
				s-1.147-1.232-1.448-2.003c-0.301-0.771-0.451-1.602-0.451-2.492c0-1.129,0.263-2.169,0.79-3.123
				c0.526-0.953,1.279-1.777,2.257-2.473c0.978-0.696,2.16-1.238,3.545-1.627c1.386-0.388,2.931-0.583,4.637-0.583
				c0.89,0,1.821,0.054,2.793,0.16s1.928,0.248,2.869,0.423c0.94,0.176,1.843,0.38,2.708,0.611c0.865,0.232,1.63,0.48,2.294,0.743
				l-1.749,4.326c-1.417-0.527-2.831-0.943-4.242-1.251c-1.411-0.307-2.862-0.461-4.354-0.461c-1.041,0-1.922,0.079-2.643,0.235
				s-1.307,0.364-1.758,0.621c-0.452,0.257-0.781,0.552-0.988,0.884c-0.207,0.332-0.31,0.68-0.31,1.044
				c0,0.263,0.053,0.501,0.16,0.714c0.106,0.213,0.282,0.398,0.527,0.555s0.564,0.276,0.959,0.357s0.881,0.122,1.458,0.122
				c0.526,0,1.084-0.031,1.674-0.094c0.589-0.063,1.204-0.128,1.843-0.197s1.301-0.135,1.984-0.198
				c0.683-0.063,1.382-0.094,2.097-0.094c1.329,0,2.492,0.157,3.489,0.47c0.997,0.313,1.821,0.752,2.473,1.316
				c0.652,0.564,1.141,1.229,1.467,1.994c0.326,0.765,0.489,1.599,0.489,2.501c0,1.166-0.27,2.251-0.809,3.254
				c-0.539,1.003-1.342,1.872-2.408,2.605s-2.392,1.307-3.978,1.721c-1.586,0.414-3.42,0.621-5.501,0.621
				c-1.279,0-2.514-0.079-3.706-0.235s-2.326-0.37-3.404-0.639c-1.079-0.27-2.091-0.586-3.038-0.95
				c-0.947-0.363-1.809-0.752-2.586-1.166L275.063,120.282z"/>
			<path fill="#FFFFFF" d="M306.437,109.072h-5.36v-4.176h5.36v-6.903h5.567v6.903h5.361v4.176h-5.361v18.019h-5.567V109.072z"/>
			<path fill="#FFFFFF" d="M325.246,101.868c-0.552,0-1.051-0.078-1.496-0.235c-0.445-0.157-0.825-0.37-1.138-0.64
				c-0.314-0.27-0.555-0.583-0.724-0.94c-0.169-0.357-0.254-0.736-0.254-1.138c0-0.414,0.084-0.8,0.254-1.157
				c0.169-0.357,0.41-0.668,0.724-0.931c0.313-0.264,0.692-0.473,1.138-0.63c0.445-0.156,0.943-0.235,1.496-0.235
				c0.564,0,1.069,0.079,1.514,0.235c0.445,0.157,0.824,0.367,1.138,0.63c0.313,0.263,0.555,0.574,0.724,0.931
				c0.169,0.357,0.254,0.743,0.254,1.157c0,0.401-0.084,0.78-0.254,1.138s-0.411,0.671-0.724,0.94
				c-0.313,0.27-0.693,0.483-1.138,0.64C326.315,101.79,325.81,101.868,325.246,101.868z M322.462,104.896h5.567v22.195h-5.567
				V104.896z"/>
			<path fill="#FFFFFF" d="M332.092,104.878h6.452l5.774,13.354l1.505,3.743l1.504-3.743l5.774-13.354h6.452l-10.514,22.213h-6.433
				L332.092,104.878z"/>
			<path fill="#FFFFFF" d="M362.394,120.094c0-1.065,0.232-2.038,0.696-2.916c0.464-0.877,1.16-1.633,2.088-2.266
				s2.085-1.122,3.47-1.467c1.386-0.345,3-0.517,4.844-0.517c1.366,0,2.805,0.101,4.316,0.301c1.511,0.201,3.069,0.508,4.674,0.922
				c-0.063-0.702-0.276-1.351-0.64-1.947c-0.364-0.596-0.869-1.11-1.514-1.542c-0.646-0.433-1.423-0.768-2.333-1.006
				c-0.909-0.238-1.94-0.357-3.094-0.357c-0.627,0-1.317,0.038-2.069,0.113s-1.53,0.188-2.332,0.339
				c-0.803,0.15-1.596,0.338-2.379,0.564c-0.784,0.226-1.514,0.496-2.191,0.809l-1.693-4.571c0.84-0.301,1.74-0.577,2.699-0.828
				c0.959-0.25,1.94-0.467,2.944-0.649c1.003-0.182,2.006-0.323,3.009-0.423c1.003-0.1,1.975-0.15,2.916-0.15
				c4.15,0,7.235,1.06,9.254,3.179c2.019,2.12,3.028,5.367,3.028,9.743v9.668h-5.567v-2.088c-0.577,0.339-1.207,0.658-1.891,0.959
				c-0.684,0.301-1.426,0.564-2.229,0.79c-0.803,0.226-1.665,0.404-2.586,0.536c-0.922,0.132-1.897,0.198-2.925,0.198
				c-1.73,0-3.251-0.188-4.561-0.564c-1.311-0.376-2.405-0.896-3.282-1.561c-0.878-0.665-1.54-1.445-1.984-2.342
				C362.616,122.123,362.394,121.147,362.394,120.094z M368.262,119.906c0,0.364,0.094,0.712,0.282,1.044
				c0.188,0.333,0.489,0.627,0.903,0.884c0.414,0.257,0.943,0.464,1.589,0.621c0.646,0.157,1.426,0.235,2.341,0.235
				c0.979,0,1.925-0.087,2.84-0.263c0.915-0.176,1.768-0.407,2.558-0.696s1.505-0.621,2.144-0.997
				c0.64-0.376,1.172-0.765,1.599-1.166v-0.978c-0.853-0.238-1.696-0.439-2.53-0.602c-0.834-0.163-1.63-0.292-2.389-0.386
				c-0.759-0.094-1.473-0.16-2.144-0.197s-1.257-0.057-1.759-0.057c-1.041,0-1.906,0.069-2.596,0.207
				c-0.689,0.138-1.248,0.323-1.674,0.555c-0.426,0.232-0.728,0.505-0.903,0.818C368.35,119.242,368.262,119.568,368.262,119.906z"
				/>
			<path fill="#FFFFFF" d="M395.592,95.887h5.567v31.204h-5.567V95.887z"/>
		</g>
	</g>
	<g>
		<g>
			<path fill="none" stroke="#FFFFFF" stroke-width="2" stroke-miterlimit="10" d="M2126.915,153.894
				c0,47.422-38.441,85.866-85.864,85.866c-47.419,0-85.865-38.443-85.865-85.866c0-47.421,38.446-85.865,85.865-85.865
				C2088.474,68.029,2126.915,106.472,2126.915,153.894z"/>
			<path fill="none" stroke="#FFFFFF" stroke-width="2" stroke-miterlimit="10" d="M2043.197,68.029
				c3.137-10.006-6.707-16.289-12.688-22.356c-8.126-8.245-11.639-22.42-2.494-31.399c4.451-4.371,11.609-5.782,17.23-2.853
				c5.059,2.637,7.729,8.912,6.009,14.397c-1.769,5.63-8.528,8.495-13.902,6.098c-7.48-3.334-6.21-16.301,3.17-14.726"/>
			<path fill="none" stroke="#FFFFFF" stroke-width="2" stroke-miterlimit="10" d="M2038.907,239.759
				c-3.14,10.004,6.707,16.288,12.686,22.355c8.129,8.245,11.639,22.419,2.494,31.399c-4.451,4.369-11.609,5.782-17.23,2.854
				c-5.059-2.636-7.729-8.912-6.006-14.398c1.77-5.632,8.525-8.494,13.899-6.099c7.481,3.335,6.21,16.304-3.167,14.725"/>
			<path fill="none" stroke="#FFFFFF" stroke-width="2" stroke-miterlimit="10" d="M2126.915,156.04
				c10.007,3.137,16.29-6.708,22.36-12.688c8.243-8.126,22.417-11.64,31.396-2.495c4.373,4.451,5.782,11.609,2.854,17.231
				c-2.636,5.059-8.911,7.731-14.396,6.007c-5.631-1.768-8.494-8.526-6.1-13.898c3.335-7.481,16.303-6.213,14.727,3.167"/>
			<path fill="none" stroke="#FFFFFF" stroke-width="2" stroke-miterlimit="10" d="M1955.186,151.748
				c-10.006-3.135-16.289,6.708-22.356,12.688c-8.243,8.127-22.42,11.64-31.398,2.497c-4.369-4.451-5.782-11.609-2.855-17.231
				c2.638-5.061,8.916-7.731,14.401-6.009c5.631,1.77,8.491,8.528,6.097,13.9c-3.335,7.482-16.303,6.211-14.725-3.167"/>
			<path fill="none" stroke="#FFFFFF" stroke-width="2" stroke-miterlimit="10" d="M2075.664,75.285
				c6.701-8.065-0.016-17.617-3.241-25.503c-4.386-10.714-2.25-25.16,9.621-29.989c5.779-2.353,12.935-0.937,17.023,3.907
				c3.68,4.362,3.765,11.18,0.087,15.601c-3.776,4.537-11.116,4.616-15.175,0.362c-5.652-5.929,0.448-17.443,8.525-12.42"/>
			<path fill="none" stroke="#FFFFFF" stroke-width="2" stroke-miterlimit="10" d="M2006.44,232.504
				c-6.704,8.065,0.016,17.615,3.242,25.499c4.382,10.715,2.246,25.16-9.622,29.992c-5.779,2.352-12.938,0.938-17.022-3.908
				c-3.681-4.362-3.768-11.181-0.088-15.601c3.773-4.537,11.113-4.617,15.175-0.361c5.651,5.93-0.448,17.441-8.528,12.419"/>
			<path fill="none" stroke="#FFFFFF" stroke-width="2" stroke-miterlimit="10" d="M2119.661,188.505
				c8.064,6.705,17.617-0.014,25.502-3.24c10.713-4.383,25.159-2.249,29.992,9.622c2.349,5.779,0.935,12.935-3.91,17.024
				c-4.36,3.68-11.181,3.765-15.602,0.086c-4.536-3.775-4.614-11.113-0.36-15.174c5.931-5.655,17.442,0.448,12.42,8.525"/>
			<path fill="none" stroke="#FFFFFF" stroke-width="2" stroke-miterlimit="10" d="M1962.44,119.283
				c-8.065-6.704-17.615,0.014-25.502,3.241c-10.713,4.383-25.16,2.248-29.989-9.623c-2.352-5.778-0.938-12.935,3.907-17.022
				c4.361-3.68,11.181-3.765,15.602-0.086c4.536,3.774,4.617,11.113,0.359,15.173c-5.928,5.653-17.439-0.448-12.417-8.524"/>
			<path fill="none" stroke="#FFFFFF" stroke-width="2" stroke-miterlimit="10" d="M2102.935,94.332
				c9.266-4.913,6.684-16.301,6.695-24.821c0.016-11.574,7.479-24.127,20.298-24.085c6.238,0.02,12.319,4.049,14.258,10.083
				c1.748,5.431-0.765,11.773-5.849,14.463c-5.213,2.763-12.032,0.048-14.17-5.433c-2.979-7.63,7.043-15.961,12.604-8.247"/>
			<path fill="none" stroke="#FFFFFF" stroke-width="2" stroke-miterlimit="10" d="M1979.167,213.456
				c-9.266,4.914-6.681,16.302-6.691,24.821c-0.02,11.575-7.482,24.126-20.298,24.085c-6.239-0.021-12.32-4.05-14.262-10.084
				c-1.745-5.433,0.765-11.771,5.849-14.463c5.216-2.762,12.035-0.048,14.173,5.434c2.977,7.629-7.042,15.961-12.604,8.245"/>
			<path fill="none" stroke="#FFFFFF" stroke-width="2" stroke-miterlimit="10" d="M2100.612,215.779
				c4.914,9.265,16.303,6.681,24.821,6.694c11.576,0.016,24.129,7.479,24.086,20.296c-0.021,6.237-4.049,12.318-10.085,14.259
				c-5.432,1.746-11.771-0.766-14.46-5.848c-2.765-5.213-0.05-12.033,5.431-14.172c7.629-2.977,15.961,7.042,8.246,12.603"/>
			<path fill="none" stroke="#FFFFFF" stroke-width="2" stroke-miterlimit="10" d="M1981.489,92.01
				c-4.914-9.266-16.3-6.682-24.821-6.694c-11.576-0.015-24.126-7.48-24.083-20.297c0.018-6.237,4.046-12.32,10.082-14.26
				c5.432-1.747,11.771,0.765,14.464,5.848c2.761,5.215,0.049,12.036-5.432,14.174c-7.632,2.975-15.964-7.045-8.249-12.606"/>
			<path fill="none" stroke="#FFFFFF" stroke-width="2" stroke-miterlimit="10" d="M2120.928,122.313
				c10.437-1.022,12.375-12.539,15.622-20.416c4.412-10.702,16.085-19.475,27.924-14.566c5.764,2.389,9.858,8.428,9.363,14.747
				c-0.451,5.688-5.184,10.598-10.908,11.156c-5.872,0.575-11.149-4.53-11.044-10.41c0.146-8.191,12.58-12.089,14.79-2.84"/>
			<path fill="none" stroke="#FFFFFF" stroke-width="2" stroke-miterlimit="10" d="M1961.178,185.474
				c-10.44,1.024-12.375,12.54-15.623,20.416c-4.413,10.702-16.088,19.476-27.927,14.567c-5.764-2.389-9.858-8.427-9.359-14.745
				c0.447-5.688,5.18-10.6,10.905-11.158c5.875-0.574,11.148,4.53,11.046,10.41c-0.148,8.191-12.58,12.091-14.794,2.84"/>
			<path fill="none" stroke="#FFFFFF" stroke-width="2" stroke-miterlimit="10" d="M2072.631,233.77
				c1.025,10.437,12.54,12.373,20.415,15.62c10.702,4.414,19.476,16.088,14.567,27.925c-2.389,5.763-8.429,9.859-14.746,9.36
				c-5.688-0.447-10.599-5.18-11.155-10.905c-0.575-5.874,4.53-11.149,10.408-11.046c8.193,0.147,12.091,12.581,2.84,14.793"/>
			<path fill="none" stroke="#FFFFFF" stroke-width="2" stroke-miterlimit="10" d="M2009.471,74.018
				c-1.021-10.436-12.537-12.373-20.415-15.623c-10.702-4.412-19.476-16.086-14.566-27.925c2.388-5.762,8.428-9.856,14.744-9.359
				c5.691,0.448,10.6,5.182,11.156,10.905c0.575,5.873-4.527,11.149-10.408,11.047c-8.189-0.148-12.088-12.58-2.84-14.794"/>
		</g>
		<text transform="matrix(1 0 0 1 2020.1094 132.5669)"><tspan x="0" y="0" fill="#FFFFFF" font-family="'KronaOne-Regular'" font-size="24">Ra</tspan><tspan x="-59.197" y="28.8" fill="#FFFFFF" font-family="'KronaOne-Regular'" font-size="24">em henen</tspan><tspan x="-40.846" y="57.6" fill="#FFFFFF" font-family="'KronaOne-Regular'" font-size="24">Festival</tspan></text>
	</g>
</g>
<g id="Layer_2">
	<g>
		<circle fill="none" stroke="#FCE300" stroke-width="2" stroke-miterlimit="10" cx="-251.777" cy="-5.989" r="55.457"/>
		
			<line fill="none" stroke="#FCE300" stroke-width="2" stroke-miterlimit="10" x1="-251.777" y1="-61.446" x2="-251.777" y2="-99.003"/>
		
			<line fill="none" stroke="#FCE300" stroke-width="2" stroke-miterlimit="10" x1="-251.777" y1="49.468" x2="-251.777" y2="87.024"/>
		
			<line fill="none" stroke="#FCE300" stroke-width="2" stroke-miterlimit="10" x1="-196.32" y1="-5.989" x2="-158.763" y2="-5.989"/>
		
			<line fill="none" stroke="#FCE300" stroke-width="2" stroke-miterlimit="10" x1="-307.234" y1="-5.989" x2="-344.791" y2="-5.989"/>
		
			<line fill="none" stroke="#FCE300" stroke-width="2" stroke-miterlimit="10" x1="-237.716" y1="-59.634" x2="-228.194" y2="-95.963"/>
		
			<line fill="none" stroke="#FCE300" stroke-width="2" stroke-miterlimit="10" x1="-265.837" y1="47.656" x2="-275.359" y2="83.985"/>
		
			<line fill="none" stroke="#FCE300" stroke-width="2" stroke-miterlimit="10" x1="-198.132" y1="8.071" x2="-161.802" y2="17.593"/>
		
			<line fill="none" stroke="#FCE300" stroke-width="2" stroke-miterlimit="10" x1="-305.422" y1="-20.05" x2="-341.751" y2="-29.572"/>
		
			<line fill="none" stroke="#FCE300" stroke-width="2" stroke-miterlimit="10" x1="-224.575" y1="-54.317" x2="-206.153" y2="-87.045"/>
		
			<line fill="none" stroke="#FCE300" stroke-width="2" stroke-miterlimit="10" x1="-278.979" y1="42.338" x2="-297.401" y2="75.065"/>
		
			<line fill="none" stroke="#FCE300" stroke-width="2" stroke-miterlimit="10" x1="-203.45" y1="21.212" x2="-170.722" y2="39.635"/>
		
			<line fill="none" stroke="#FCE300" stroke-width="2" stroke-miterlimit="10" x1="-300.104" y1="-33.191" x2="-332.832" y2="-51.613"/>
		
			<line fill="none" stroke="#FCE300" stroke-width="2" stroke-miterlimit="10" x1="-213.211" y1="-45.841" x2="-187.093" y2="-72.829"/>
		
			<line fill="none" stroke="#FCE300" stroke-width="2" stroke-miterlimit="10" x1="-290.343" y1="33.862" x2="-316.461" y2="60.85"/>
		
			<line fill="none" stroke="#FCE300" stroke-width="2" stroke-miterlimit="10" x1="-211.925" y1="32.577" x2="-184.937" y2="58.695"/>
		
			<line fill="none" stroke="#FCE300" stroke-width="2" stroke-miterlimit="10" x1="-291.628" y1="-44.555" x2="-318.616" y2="-70.673"/>
		
			<line fill="none" stroke="#FCE300" stroke-width="2" stroke-miterlimit="10" x1="-204.367" y1="-34.761" x2="-172.26" y2="-54.246"/>
		
			<line fill="none" stroke="#FCE300" stroke-width="2" stroke-miterlimit="10" x1="-299.187" y1="22.782" x2="-331.293" y2="42.267"/>
		<line fill="none" stroke="#FCE300" stroke-width="2" stroke-miterlimit="10" x1="-223.2" y1="41.538" x2="-203.847" y2="73.724"/>
		
			<line fill="none" stroke="#FCE300" stroke-width="2" stroke-miterlimit="10" x1="-280.354" y1="-53.517" x2="-299.707" y2="-85.703"/>
		
			<line fill="none" stroke="#FCE300" stroke-width="2" stroke-miterlimit="10" x1="-198.409" y1="-21.067" x2="-162.267" y2="-31.278"/>
		<line fill="none" stroke="#FCE300" stroke-width="2" stroke-miterlimit="10" x1="-305.145" y1="9.088" x2="-341.287" y2="19.3"/>
		
			<line fill="none" stroke="#FCE300" stroke-width="2" stroke-miterlimit="10" x1="-236.699" y1="47.378" x2="-226.488" y2="83.521"/>
		
			<line fill="none" stroke="#FCE300" stroke-width="2" stroke-miterlimit="10" x1="-266.855" y1="-59.357" x2="-277.066" y2="-95.499"/>
	</g>
</g>
</svg>
