<?xml version="1.0" standalone="no"?>
<!DOCTYPE svg PUBLIC "-//W3C//DTD SVG 20010904//EN"
 "http://www.w3.org/TR/2001/REC-SVG-20010904/DTD/svg10.dtd">
<svg version="1.0" xmlns="http://www.w3.org/2000/svg"
 width="700.000000pt" height="700.000000pt" viewBox="0 0 700.000000 700.000000"
 preserveAspectRatio="xMidYMid meet">
<metadata>
Created by potrace 1.11, written by Peter Selinger 2001-2013
</metadata>
<g transform="translate(0.000000,700.000000) scale(0.100000,-0.100000)"
fill="#000000" stroke="none">
<path d="M3476 6717 c-10 -17 -29 -52 -43 -77 -13 -25 -33 -58 -44 -75 -10
-16 -26 -43 -35 -60 -8 -16 -26 -48 -39 -70 -13 -22 -30 -51 -38 -65 -8 -14
-47 -81 -87 -150 -40 -69 -84 -145 -98 -170 -14 -25 -63 -109 -109 -188 -45
-78 -83 -147 -83 -152 0 -6 -3 -10 -7 -10 -5 0 -13 -10 -19 -23 -8 -18 -194
-339 -300 -522 -13 -22 -27 -47 -31 -55 -5 -8 -35 -62 -68 -118 -33 -57 -69
-120 -81 -140 -11 -21 -65 -113 -119 -207 -54 -93 -106 -184 -116 -202 -10
-17 -30 -50 -44 -73 -14 -23 -29 -49 -33 -58 -6 -14 -83 -150 -132 -232 -36
-60 -76 -128 -86 -145 -30 -54 -68 -122 -78 -140 -6 -11 -14 -22 -17 -25 -4
-3 -17 -25 -29 -50 -13 -25 -56 -101 -96 -168 -41 -68 -74 -126 -74 -128 0 -2
-17 -32 -38 -66 -21 -35 -41 -70 -45 -78 -4 -8 -23 -42 -43 -75 -19 -33 -38
-68 -41 -77 -3 -10 -9 -18 -14 -18 -5 0 -9 -4 -9 -9 0 -5 -36 -70 -80 -145
-44 -74 -80 -137 -80 -140 0 -3 -17 -33 -39 -68 -82 -135 -191 -326 -191 -336
0 -6 -6 -15 -12 -19 -7 -4 -28 -37 -47 -73 -19 -36 -37 -67 -40 -70 -12 -10
-40 -70 -33 -71 4 -1 84 -3 179 -3 95 -1 175 -5 179 -8 3 -4 -9 -33 -27 -65
-18 -32 -32 -60 -30 -62 1 -2 -2 -7 -7 -10 -5 -3 -28 -40 -51 -81 -23 -41 -46
-82 -51 -90 -47 -78 -90 -154 -90 -161 0 -5 -3 -9 -8 -9 -4 0 -15 -17 -25 -37
-17 -38 -27 -55 -60 -105 -9 -15 -14 -29 -9 -32 5 -3 80 -5 167 -5 87 -1 160
-2 161 -4 2 -2 -20 -43 -49 -93 -29 -49 -64 -109 -78 -134 -13 -25 -26 -47
-29 -50 -3 -3 -11 -16 -18 -29 -8 -13 -23 -40 -34 -60 -12 -20 -32 -56 -46
-81 -14 -25 -30 -48 -36 -52 -6 -5 -7 -8 -1 -8 6 0 6 -3 0 -8 -6 -4 -17 -20
-25 -37 -8 -16 -16 -33 -18 -37 -2 -5 80 -8 182 -8 102 0 186 -3 186 -6 0 -4
-19 -40 -42 -82 -24 -41 -55 -95 -69 -121 -28 -50 -139 -240 -212 -363 -25
-42 -43 -79 -39 -82 3 -3 1193 -6 2644 -6 2315 0 2638 2 2638 15 0 8 -19 47
-43 87 -24 40 -46 80 -50 88 -4 8 -17 31 -28 50 -12 19 -46 78 -76 130 -29 52
-58 102 -63 110 -35 57 -86 148 -92 163 -7 16 5 17 172 17 119 0 180 4 180 11
0 5 -25 53 -55 105 -30 53 -55 100 -55 105 0 5 -4 9 -10 9 -5 0 -10 4 -10 9 0
5 -28 58 -63 118 -113 192 -121 208 -122 216 0 4 -7 12 -15 17 -13 8 230 17
307 11 11 -1 24 2 27 7 3 5 -17 46 -44 91 -28 45 -50 84 -50 86 0 3 -18 34
-40 70 -22 36 -40 68 -40 72 0 3 -6 14 -14 22 -7 9 -29 45 -49 81 -19 36 -56
101 -81 144 -25 44 -44 82 -42 85 2 3 85 6 184 5 212 -1 202 -23 83 180 -44
76 -81 140 -81 142 0 3 -18 33 -40 68 -22 35 -40 66 -40 69 0 3 -11 22 -25 42
-13 21 -32 54 -42 76 -9 21 -20 39 -25 39 -4 0 -8 4 -8 10 0 5 -18 39 -39 74
-22 35 -37 67 -34 70 4 3 1 6 -5 6 -7 0 -12 6 -12 14 0 8 -3 16 -7 18 -5 2
-15 17 -24 33 -9 17 -48 86 -88 153 -39 68 -71 128 -71 133 0 5 -4 9 -8 9 -5
0 -14 16 -22 35 -8 19 -17 35 -22 35 -4 0 -8 5 -8 10 0 6 -11 27 -23 48 -13
20 -35 57 -49 82 -14 25 -48 85 -77 133 -28 49 -51 93 -51 98 0 5 -4 9 -10 9
-5 0 -10 4 -10 9 0 5 -54 102 -120 216 -66 114 -120 209 -120 213 0 3 -6 13
-14 21 -7 9 -26 41 -42 71 -16 30 -32 57 -35 60 -3 3 -14 21 -24 40 -10 19
-71 126 -136 236 -64 111 -128 221 -142 245 -24 44 -65 116 -210 366 -43 73
-77 137 -77 143 0 5 -4 10 -8 10 -5 0 -18 19 -30 43 -12 23 -44 81 -72 127
-27 47 -50 89 -50 93 0 4 -5 13 -11 20 -9 11 -57 92 -158 267 -24 41 -77 134
-119 205 -81 141 -101 176 -133 233 -12 20 -25 42 -29 47 -4 6 -19 31 -33 57
-75 135 -159 278 -165 278 -4 0 -15 -15 -26 -33z m86 -167 c14 -25 49 -85 78
-135 29 -49 62 -106 73 -125 11 -19 28 -48 38 -65 10 -16 25 -43 33 -60 9 -16
33 -59 55 -95 22 -36 49 -81 59 -100 10 -19 53 -94 95 -167 42 -72 85 -147 95
-165 50 -87 285 -492 326 -561 25 -43 46 -81 46 -83 0 -2 12 -23 26 -45 14
-23 37 -62 51 -87 45 -80 57 -102 168 -292 152 -262 153 -264 153 -274 0 -5 4
-12 9 -15 11 -7 123 -200 123 -211 0 -5 3 -10 8 -12 4 -1 20 -28 36 -58 16
-30 34 -62 41 -70 7 -8 23 -35 35 -60 12 -25 30 -53 39 -64 9 -10 15 -20 13
-22 -1 -2 4 -14 12 -27 16 -26 124 -213 283 -490 62 -109 125 -216 138 -237
14 -22 22 -40 18 -40 -5 0 -3 -4 2 -8 6 -4 15 -16 22 -27 29 -47 145 -250 186
-325 17 -30 33 -57 36 -60 3 -3 13 -19 22 -35 8 -17 52 -94 97 -172 45 -78 82
-143 82 -145 0 -9 -310 -2 -319 7 -7 8 -89 147 -212 363 -11 18 -54 93 -96
165 -42 73 -98 170 -124 216 -27 46 -49 85 -49 87 0 2 -16 28 -35 58 -19 30
-35 60 -35 66 0 5 -4 10 -10 10 -5 0 -10 5 -10 11 0 6 -28 58 -63 117 -35 59
-66 114 -70 122 -4 8 -21 38 -38 65 -16 28 -33 58 -36 68 -3 9 -9 17 -13 17
-5 0 -12 10 -16 23 -4 12 -9 24 -13 27 -3 3 -13 19 -22 35 -8 17 -60 107 -114
200 -54 94 -106 184 -115 200 -9 17 -68 118 -130 225 -62 107 -122 211 -132
230 -11 19 -24 40 -28 45 -4 6 -21 35 -37 65 -16 30 -72 127 -123 215 -51 88
-104 180 -118 205 -14 25 -44 77 -67 115 -23 39 -84 144 -136 235 -52 91 -97
167 -101 168 -5 2 -8 12 -8 23 0 10 -4 19 -8 19 -5 0 -17 18 -27 40 -10 22
-22 40 -27 40 -5 0 -6 5 -3 10 3 6 2 10 -2 10 -5 0 -14 12 -20 28 -7 15 -24
47 -39 72 -15 25 -35 59 -44 76 -73 128 -114 194 -121 194 -4 0 -11 -10 -15
-22 -4 -13 -9 -25 -13 -28 -3 -3 -16 -23 -29 -45 -29 -51 -141 -246 -166 -288
-123 -212 -166 -288 -166 -297 0 -5 -4 -10 -9 -10 -5 0 -12 -11 -15 -25 -4
-14 -11 -25 -16 -25 -6 0 -10 -4 -10 -9 0 -5 -19 -42 -43 -83 -24 -40 -55 -93
-69 -118 -14 -25 -116 -202 -228 -395 -111 -192 -211 -366 -222 -385 -31 -54
-112 -192 -125 -215 -7 -11 -15 -27 -19 -35 -7 -14 -35 -62 -159 -275 -32 -55
-58 -102 -58 -105 1 -3 -4 -12 -11 -20 -7 -8 -16 -22 -20 -30 -4 -8 -12 -24
-19 -35 -51 -84 -95 -161 -95 -169 0 -5 -4 -12 -9 -15 -5 -3 -17 -19 -25 -36
-8 -16 -55 -97 -103 -180 -48 -82 -97 -166 -108 -185 -10 -19 -62 -109 -115
-200 -53 -91 -112 -194 -132 -230 -20 -36 -83 -144 -139 -240 l-102 -175 -155
0 c-172 0 -171 -1 -129 65 14 22 25 44 25 50 0 5 3 10 8 10 4 0 18 21 32 48
13 26 35 64 48 85 23 38 43 74 90 157 14 25 57 99 95 165 39 66 75 130 81 142
6 13 14 23 19 23 4 0 7 4 7 10 0 5 36 71 80 145 43 75 82 145 85 156 4 10 11
19 16 19 5 0 9 4 9 10 0 5 13 31 29 58 15 26 39 68 53 93 14 24 83 143 153
264 70 121 138 240 152 265 14 25 29 50 33 55 4 6 19 31 34 58 69 125 80 144
97 169 11 14 19 29 19 32 0 3 14 29 31 58 18 29 40 68 50 86 11 17 27 47 38
65 10 17 32 55 48 83 17 27 43 72 58 100 56 97 86 149 95 164 57 95 100 172
100 180 0 5 5 10 10 10 6 0 10 4 10 10 0 5 38 73 84 152 45 79 85 148 87 153
4 10 87 152 154 265 18 30 45 78 60 105 16 28 33 53 39 57 6 4 8 8 4 8 -4 0
20 45 53 100 32 55 59 105 59 110 0 6 5 10 10 10 6 0 10 4 10 9 0 12 82 155
95 163 5 4 7 8 3 8 -3 0 18 41 48 90 30 50 54 95 54 100 0 6 5 10 10 10 6 0
10 5 10 12 0 6 32 65 71 130 l71 120 17 -29 c10 -15 29 -48 43 -73z m53 -845
c54 -93 108 -188 120 -210 13 -22 46 -80 75 -130 29 -49 64 -110 78 -135 13
-25 46 -81 72 -125 26 -44 57 -96 67 -115 44 -78 296 -516 303 -525 4 -5 19
-30 32 -55 14 -25 36 -63 49 -86 43 -73 194 -334 217 -377 13 -23 46 -79 73
-123 27 -45 49 -87 49 -93 0 -6 5 -11 10 -11 6 0 10 -5 10 -10 0 -6 32 -65 71
-133 40 -67 81 -138 91 -157 11 -19 35 -60 54 -91 19 -31 34 -62 34 -68 0 -6
4 -11 9 -11 5 0 11 -8 15 -17 3 -10 10 -25 16 -33 11 -17 82 -139 138 -240 14
-25 54 -93 89 -152 34 -59 63 -112 63 -117 0 -6 5 -11 10 -11 6 0 10 -5 10
-11 0 -13 111 -201 125 -211 5 -4 7 -8 3 -8 -3 0 24 -51 61 -113 38 -61 66
-114 64 -117 -2 -2 -54 -5 -115 -5 l-111 -1 -32 51 c-18 27 -44 73 -60 100
-15 28 -52 91 -81 142 -30 50 -54 96 -54 102 0 6 -4 11 -10 11 -5 0 -10 4 -10
10 0 5 -25 50 -55 101 -30 50 -55 93 -55 94 0 2 -20 38 -45 79 -25 42 -45 81
-45 86 0 6 -3 10 -7 10 -5 0 -13 10 -19 23 -15 33 -58 111 -64 117 -3 3 -11
16 -18 29 -8 13 -22 38 -31 55 -10 17 -60 103 -111 191 -109 189 -125 216
-158 275 -14 25 -36 61 -49 80 -12 19 -23 40 -23 47 0 7 -4 13 -10 13 -5 0
-10 5 -10 11 0 7 -14 35 -32 63 -29 48 -39 65 -88 152 -41 71 -100 174 -230
399 -73 127 -144 250 -158 275 -14 25 -36 62 -49 82 -12 21 -23 42 -23 48 0 5
-4 10 -10 10 -5 0 -10 6 -10 14 0 7 -7 19 -15 26 -9 7 -13 15 -11 18 3 2 -8
24 -25 48 -16 24 -27 44 -24 44 3 0 1 6 -5 13 -11 12 -104 169 -144 242 -48
87 -118 205 -125 210 -5 2 -21 -19 -37 -48 -16 -29 -33 -60 -39 -69 -5 -9 -39
-67 -75 -129 -36 -63 -77 -134 -92 -159 -15 -25 -33 -56 -41 -70 -24 -43 -58
-103 -97 -170 -21 -36 -47 -81 -57 -100 -11 -19 -57 -98 -102 -174 -44 -76
-81 -141 -81 -143 0 -3 -10 -19 -22 -36 -13 -18 -23 -34 -23 -37 0 -3 -17 -33
-38 -68 -20 -35 -37 -67 -37 -73 0 -5 -4 -9 -10 -9 -5 0 -10 -5 -10 -10 0 -6
-19 -43 -43 -83 -88 -147 -178 -307 -177 -313 1 -4 -3 -10 -8 -13 -8 -6 -63
-100 -86 -148 -6 -13 -14 -23 -18 -23 -5 0 -8 -7 -8 -15 0 -8 -5 -15 -10 -15
-6 0 -9 -3 -8 -7 3 -10 -63 -127 -74 -131 -4 -2 -8 -7 -8 -12 0 -4 -32 -64
-71 -132 -39 -67 -83 -143 -97 -168 -14 -25 -29 -48 -34 -51 -6 -3 -9 -9 -9
-13 1 -9 -12 -40 -21 -51 -16 -18 -158 -267 -158 -276 0 -5 -3 -9 -7 -9 -5 0
-17 -20 -28 -45 -11 -25 -23 -45 -27 -45 -3 0 -10 -9 -13 -20 -4 -11 -19 -39
-33 -61 -15 -23 -25 -44 -24 -46 2 -3 0 -9 -5 -12 -5 -3 -44 -68 -87 -143 -43
-75 -83 -138 -89 -141 -17 -5 -206 -2 -212 5 -3 2 31 66 75 142 44 75 80 141
80 146 0 6 4 10 9 10 5 0 13 10 17 22 3 12 24 50 45 85 22 35 39 68 39 73 0 6
4 10 8 10 5 0 19 21 32 48 13 26 40 74 60 107 20 33 39 67 43 75 4 8 16 30 27
48 42 69 244 418 258 447 9 17 18 32 21 35 3 3 11 14 17 25 50 92 68 122 82
138 8 9 12 17 8 17 -4 0 1 12 11 28 33 49 43 67 61 102 9 19 21 40 25 45 10
13 71 116 106 180 26 46 116 203 144 250 7 11 14 22 17 25 3 3 6 12 8 20 2 8
8 17 13 18 5 2 9 8 9 12 0 5 52 97 115 206 63 108 115 199 115 201 0 3 8 17
19 31 10 15 33 54 51 87 18 33 38 63 44 67 6 4 7 8 3 8 -4 0 8 25 28 55 19 31
35 57 35 60 0 3 27 50 60 106 33 55 60 103 60 105 0 3 11 21 24 42 42 66 136
229 136 236 0 3 16 30 35 60 19 30 35 60 35 66 0 5 5 10 10 10 6 0 10 7 10 15
0 8 5 15 12 15 6 0 9 3 5 6 -3 3 14 39 39 79 24 40 44 77 44 83 0 12 23 22 31
13 3 -3 50 -82 104 -176z m-95 -535 c7 -16 16 -30 21 -30 5 0 9 -4 9 -10 0 -5
13 -31 28 -57 46 -77 137 -234 164 -283 30 -53 168 -292 197 -341 11 -19 30
-52 42 -74 12 -22 27 -43 33 -47 6 -4 8 -8 3 -8 -4 0 4 -19 19 -41 25 -39 149
-253 199 -342 12 -23 49 -87 82 -142 32 -55 67 -117 78 -137 11 -21 23 -38 27
-38 5 0 8 -7 8 -15 0 -9 5 -21 10 -28 9 -10 95 -158 162 -277 11 -19 27 -48
37 -65 22 -38 128 -220 151 -260 41 -73 161 -281 170 -295 5 -8 18 -32 29 -52
11 -21 33 -57 48 -80 15 -24 27 -46 28 -50 0 -4 6 -13 13 -20 6 -6 12 -15 12
-20 0 -4 25 -48 55 -98 30 -50 55 -95 55 -100 0 -6 5 -10 11 -10 6 0 9 -8 7
-17 -3 -16 -16 -18 -102 -18 l-99 0 -24 40 c-13 22 -45 77 -72 123 -27 45 -47
82 -45 82 3 0 0 6 -6 13 -10 11 -160 267 -160 273 0 1 -27 48 -60 104 -33 56
-60 106 -60 111 0 5 -4 9 -9 9 -5 0 -11 8 -14 18 -4 9 -18 37 -33 62 -15 25
-40 70 -57 100 -16 30 -33 60 -37 65 -7 9 -156 266 -213 365 -84 148 -112 195
-119 198 -5 2 -6 8 -2 13 3 5 0 9 -5 9 -6 0 -11 5 -11 10 0 6 -41 81 -92 168
-50 86 -143 247 -206 357 -63 110 -125 216 -138 236 -13 20 -20 40 -17 43 4 3
1 6 -5 6 -7 0 -12 7 -12 15 0 8 -4 15 -10 15 -5 0 -10 6 -10 14 0 8 -6 21 -13
28 -7 7 -23 34 -37 60 -31 59 -51 86 -56 73 -2 -5 -44 -79 -94 -164 -49 -84
-92 -162 -95 -172 -4 -11 -11 -19 -16 -19 -5 0 -9 -6 -9 -12 0 -7 -18 -41 -40
-76 -22 -34 -40 -67 -40 -72 0 -6 -5 -10 -12 -10 -6 0 -9 -3 -5 -6 3 -4 -9
-31 -28 -60 -19 -30 -35 -59 -35 -64 0 -6 -4 -10 -10 -10 -5 0 -10 -4 -10 -9
0 -13 -191 -345 -204 -353 -6 -4 -7 -8 -3 -8 5 0 -1 -13 -12 -29 -12 -16 -21
-34 -21 -40 0 -6 -4 -11 -8 -11 -4 0 -13 -12 -19 -27 -7 -16 -17 -35 -22 -43
-17 -27 -97 -165 -104 -180 -4 -8 -16 -30 -27 -48 -65 -107 -200 -346 -200
-353 0 -5 -4 -9 -10 -9 -5 0 -10 -7 -10 -15 0 -8 -5 -15 -12 -15 -6 0 -9 -3
-5 -6 3 -3 -5 -24 -19 -45 -13 -21 -24 -43 -24 -48 0 -5 -4 -11 -8 -13 -4 -1
-32 -46 -61 -98 -62 -110 -147 -258 -161 -280 -34 -52 -170 -294 -170 -301 0
-5 -8 -10 -17 -10 -45 -4 -199 -4 -206 -1 -4 2 -1 14 7 27 9 13 24 39 34 57
11 18 51 89 91 157 39 68 71 126 71 129 0 3 6 13 14 21 7 9 26 41 42 71 16 30
33 60 37 65 18 22 247 426 247 435 0 6 5 10 10 10 6 0 10 7 10 15 0 8 5 15 12
15 6 0 9 3 5 6 -3 3 14 38 38 77 75 125 96 162 102 180 3 9 9 17 14 17 5 0 9
4 9 9 0 5 31 62 69 127 37 66 102 178 144 251 42 72 85 147 96 165 10 18 51
89 91 158 40 69 80 139 90 155 9 17 59 103 111 193 52 89 103 179 115 200 11
20 30 53 42 72 12 19 25 42 29 50 4 8 32 58 63 110 32 52 72 123 91 157 18 34
37 59 40 57 4 -2 12 -17 19 -34z m-1962 -3009 c13 -1 -24 -74 -107 -210 -26
-42 -50 -83 -53 -91 -3 -8 -31 -57 -62 -109 -31 -51 -56 -96 -56 -98 0 -3 -9
-17 -19 -31 -18 -26 -21 -27 -127 -27 -68 0 -108 4 -105 10 9 25 49 99 107
196 35 59 64 109 64 112 0 3 14 26 30 50 17 25 30 48 30 51 0 5 25 48 75 131
11 18 22 20 111 19 54 -1 105 -2 112 -3z m396 0 c5 -1 2 -9 -6 -18 -8 -10 -30
-45 -47 -78 -18 -32 -41 -71 -52 -86 -10 -14 -16 -29 -12 -33 3 -3 1 -6 -5 -6
-7 0 -12 -4 -12 -8 0 -8 -175 -318 -187 -332 -7 -8 -204 -6 -210 3 -2 4 11 35
31 68 20 33 36 62 36 65 0 2 18 33 40 69 22 36 40 70 40 75 0 6 4 10 9 10 5 0
13 9 16 20 4 11 23 48 44 83 20 34 52 87 70 117 l32 55 102 -1 c56 -1 106 -2
111 -3z m3307 0 c4 -1 9 -9 13 -18 3 -10 14 -31 23 -48 10 -16 34 -57 53 -90
19 -33 40 -68 45 -77 6 -9 20 -34 31 -55 12 -21 51 -89 88 -152 36 -63 64
-117 62 -120 -3 -4 -49 -6 -103 -6 l-98 1 -102 174 c-55 96 -115 198 -131 225
-52 86 -92 162 -88 166 4 3 187 3 207 0z m409 -21 c10 -14 30 -47 45 -73 15
-27 40 -70 56 -95 15 -26 37 -63 47 -82 24 -46 53 -96 114 -199 27 -46 46 -86
43 -89 -3 -4 -54 -7 -113 -7 -86 -1 -109 2 -118 15 -13 17 -181 307 -227 390
-17 30 -33 57 -36 60 -13 11 -52 91 -47 98 2 4 52 7 111 7 102 0 108 -1 125
-25z m-4100 -648 c0 -4 -11 -24 -25 -44 -14 -21 -30 -48 -35 -60 -13 -29 -33
-61 -43 -69 -5 -3 -9 -12 -11 -20 -1 -8 -13 -32 -27 -54 -26 -40 -93 -155
-117 -201 -13 -23 -17 -24 -118 -24 -110 0 -119 4 -90 45 7 11 25 41 39 67 14
25 60 105 101 177 42 73 76 136 76 141 0 6 4 10 9 10 5 0 13 9 16 20 6 18 15
20 116 20 60 0 109 -3 109 -8z m4123 -80 c26 -48 83 -147 127 -220 43 -74 82
-142 85 -152 5 -16 -2 -18 -92 -19 -54 0 -105 4 -113 9 -8 5 -10 10 -5 10 6 0
6 3 -1 8 -5 4 -23 30 -38 57 -62 111 -80 142 -103 177 -12 21 -23 40 -23 44 0
3 -8 18 -19 32 -10 15 -32 53 -50 85 l-32 57 108 0 108 0 48 -88z"/>
</g>
</svg>
